%TF.GenerationSoftware,KiCad,Pcbnew,7.0.2-6a45011f42~172~ubuntu22.04.1*%
%TF.CreationDate,2023-05-07T23:21:14+04:00*%
%TF.ProjectId,PCB 1,50434220-312e-46b6-9963-61645f706362,rev?*%
%TF.SameCoordinates,Original*%
%TF.FileFunction,Legend,Top*%
%TF.FilePolarity,Positive*%
%FSLAX46Y46*%
G04 Gerber Fmt 4.6, Leading zero omitted, Abs format (unit mm)*
G04 Created by KiCad (PCBNEW 7.0.2-6a45011f42~172~ubuntu22.04.1) date 2023-05-07 23:21:14*
%MOMM*%
%LPD*%
G01*
G04 APERTURE LIST*
%ADD10C,0.120000*%
%ADD11C,0.150000*%
G04 APERTURE END LIST*
D10*
X93980000Y-50800000D02*
X99060000Y-50800000D01*
X91440000Y-38100000D02*
X93980000Y-40640000D01*
X91440000Y-50800000D02*
X63500000Y-50800000D01*
X91440000Y-22860000D02*
X63500000Y-22860000D01*
X60960000Y-33020000D02*
X63500000Y-35560000D01*
X93980000Y-40640000D02*
X93980000Y-48260000D01*
X93980000Y-25400000D02*
X91440000Y-22860000D01*
X93980000Y-48260000D02*
X91440000Y-50800000D01*
X63500000Y-50800000D02*
X60960000Y-48260000D01*
X60960000Y-48260000D02*
X60960000Y-40640000D01*
X63500000Y-38100000D02*
X91440000Y-38100000D01*
X91440000Y-35560000D02*
X93980000Y-33020000D01*
X93980000Y-33020000D02*
X93980000Y-25400000D01*
X63500000Y-78740000D02*
X91440000Y-78740000D01*
X91440000Y-91440000D01*
X63500000Y-91440000D01*
X63500000Y-78740000D01*
X63500000Y-35560000D02*
X91440000Y-35560000D01*
X60960000Y-40640000D02*
X63500000Y-38100000D01*
X60960000Y-25400000D02*
X60960000Y-33020000D01*
X63500000Y-22860000D02*
X60960000Y-25400000D01*
D11*
X88519048Y-99141666D02*
X89280953Y-99141666D01*
X76390476Y-98855952D02*
X76390476Y-99522619D01*
X76152381Y-98475000D02*
X75914286Y-99189285D01*
X75914286Y-99189285D02*
X76533333Y-99189285D01*
X50419048Y-99141666D02*
X51180953Y-99141666D01*
X50800000Y-99522619D02*
X50800000Y-98760714D01*
X58039048Y-94061666D02*
X58800953Y-94061666D01*
X58420000Y-94442619D02*
X58420000Y-93680714D01*
X83439048Y-99141666D02*
X84200953Y-99141666D01*
X83820000Y-99522619D02*
X83820000Y-98760714D01*
X69295238Y-28402619D02*
X69295238Y-27402619D01*
X69295238Y-27402619D02*
X69628571Y-28116904D01*
X69628571Y-28116904D02*
X69961904Y-27402619D01*
X69961904Y-27402619D02*
X69961904Y-28402619D01*
X70438095Y-28402619D02*
X70438095Y-27402619D01*
X70438095Y-27878809D02*
X71009523Y-27878809D01*
X71009523Y-28402619D02*
X71009523Y-27402619D01*
X71485714Y-28021666D02*
X72247619Y-28021666D01*
X72676190Y-28355000D02*
X72819047Y-28402619D01*
X72819047Y-28402619D02*
X73057142Y-28402619D01*
X73057142Y-28402619D02*
X73152380Y-28355000D01*
X73152380Y-28355000D02*
X73199999Y-28307380D01*
X73199999Y-28307380D02*
X73247618Y-28212142D01*
X73247618Y-28212142D02*
X73247618Y-28116904D01*
X73247618Y-28116904D02*
X73199999Y-28021666D01*
X73199999Y-28021666D02*
X73152380Y-27974047D01*
X73152380Y-27974047D02*
X73057142Y-27926428D01*
X73057142Y-27926428D02*
X72866666Y-27878809D01*
X72866666Y-27878809D02*
X72771428Y-27831190D01*
X72771428Y-27831190D02*
X72723809Y-27783571D01*
X72723809Y-27783571D02*
X72676190Y-27688333D01*
X72676190Y-27688333D02*
X72676190Y-27593095D01*
X72676190Y-27593095D02*
X72723809Y-27497857D01*
X72723809Y-27497857D02*
X72771428Y-27450238D01*
X72771428Y-27450238D02*
X72866666Y-27402619D01*
X72866666Y-27402619D02*
X73104761Y-27402619D01*
X73104761Y-27402619D02*
X73247618Y-27450238D01*
X74057142Y-28355000D02*
X73961904Y-28402619D01*
X73961904Y-28402619D02*
X73771428Y-28402619D01*
X73771428Y-28402619D02*
X73676190Y-28355000D01*
X73676190Y-28355000D02*
X73628571Y-28259761D01*
X73628571Y-28259761D02*
X73628571Y-27878809D01*
X73628571Y-27878809D02*
X73676190Y-27783571D01*
X73676190Y-27783571D02*
X73771428Y-27735952D01*
X73771428Y-27735952D02*
X73961904Y-27735952D01*
X73961904Y-27735952D02*
X74057142Y-27783571D01*
X74057142Y-27783571D02*
X74104761Y-27878809D01*
X74104761Y-27878809D02*
X74104761Y-27974047D01*
X74104761Y-27974047D02*
X73628571Y-28069285D01*
X74533333Y-27735952D02*
X74533333Y-28402619D01*
X74533333Y-27831190D02*
X74580952Y-27783571D01*
X74580952Y-27783571D02*
X74676190Y-27735952D01*
X74676190Y-27735952D02*
X74819047Y-27735952D01*
X74819047Y-27735952D02*
X74914285Y-27783571D01*
X74914285Y-27783571D02*
X74961904Y-27878809D01*
X74961904Y-27878809D02*
X74961904Y-28402619D01*
X75390476Y-28355000D02*
X75485714Y-28402619D01*
X75485714Y-28402619D02*
X75676190Y-28402619D01*
X75676190Y-28402619D02*
X75771428Y-28355000D01*
X75771428Y-28355000D02*
X75819047Y-28259761D01*
X75819047Y-28259761D02*
X75819047Y-28212142D01*
X75819047Y-28212142D02*
X75771428Y-28116904D01*
X75771428Y-28116904D02*
X75676190Y-28069285D01*
X75676190Y-28069285D02*
X75533333Y-28069285D01*
X75533333Y-28069285D02*
X75438095Y-28021666D01*
X75438095Y-28021666D02*
X75390476Y-27926428D01*
X75390476Y-27926428D02*
X75390476Y-27878809D01*
X75390476Y-27878809D02*
X75438095Y-27783571D01*
X75438095Y-27783571D02*
X75533333Y-27735952D01*
X75533333Y-27735952D02*
X75676190Y-27735952D01*
X75676190Y-27735952D02*
X75771428Y-27783571D01*
X76390476Y-28402619D02*
X76295238Y-28355000D01*
X76295238Y-28355000D02*
X76247619Y-28307380D01*
X76247619Y-28307380D02*
X76200000Y-28212142D01*
X76200000Y-28212142D02*
X76200000Y-27926428D01*
X76200000Y-27926428D02*
X76247619Y-27831190D01*
X76247619Y-27831190D02*
X76295238Y-27783571D01*
X76295238Y-27783571D02*
X76390476Y-27735952D01*
X76390476Y-27735952D02*
X76533333Y-27735952D01*
X76533333Y-27735952D02*
X76628571Y-27783571D01*
X76628571Y-27783571D02*
X76676190Y-27831190D01*
X76676190Y-27831190D02*
X76723809Y-27926428D01*
X76723809Y-27926428D02*
X76723809Y-28212142D01*
X76723809Y-28212142D02*
X76676190Y-28307380D01*
X76676190Y-28307380D02*
X76628571Y-28355000D01*
X76628571Y-28355000D02*
X76533333Y-28402619D01*
X76533333Y-28402619D02*
X76390476Y-28402619D01*
X77152381Y-28402619D02*
X77152381Y-27735952D01*
X77152381Y-27926428D02*
X77200000Y-27831190D01*
X77200000Y-27831190D02*
X77247619Y-27783571D01*
X77247619Y-27783571D02*
X77342857Y-27735952D01*
X77342857Y-27735952D02*
X77438095Y-27735952D01*
X77771429Y-28021666D02*
X78533334Y-28021666D01*
X78961905Y-28355000D02*
X79104762Y-28402619D01*
X79104762Y-28402619D02*
X79342857Y-28402619D01*
X79342857Y-28402619D02*
X79438095Y-28355000D01*
X79438095Y-28355000D02*
X79485714Y-28307380D01*
X79485714Y-28307380D02*
X79533333Y-28212142D01*
X79533333Y-28212142D02*
X79533333Y-28116904D01*
X79533333Y-28116904D02*
X79485714Y-28021666D01*
X79485714Y-28021666D02*
X79438095Y-27974047D01*
X79438095Y-27974047D02*
X79342857Y-27926428D01*
X79342857Y-27926428D02*
X79152381Y-27878809D01*
X79152381Y-27878809D02*
X79057143Y-27831190D01*
X79057143Y-27831190D02*
X79009524Y-27783571D01*
X79009524Y-27783571D02*
X78961905Y-27688333D01*
X78961905Y-27688333D02*
X78961905Y-27593095D01*
X78961905Y-27593095D02*
X79009524Y-27497857D01*
X79009524Y-27497857D02*
X79057143Y-27450238D01*
X79057143Y-27450238D02*
X79152381Y-27402619D01*
X79152381Y-27402619D02*
X79390476Y-27402619D01*
X79390476Y-27402619D02*
X79533333Y-27450238D01*
X80342857Y-28355000D02*
X80247619Y-28402619D01*
X80247619Y-28402619D02*
X80057143Y-28402619D01*
X80057143Y-28402619D02*
X79961905Y-28355000D01*
X79961905Y-28355000D02*
X79914286Y-28259761D01*
X79914286Y-28259761D02*
X79914286Y-27878809D01*
X79914286Y-27878809D02*
X79961905Y-27783571D01*
X79961905Y-27783571D02*
X80057143Y-27735952D01*
X80057143Y-27735952D02*
X80247619Y-27735952D01*
X80247619Y-27735952D02*
X80342857Y-27783571D01*
X80342857Y-27783571D02*
X80390476Y-27878809D01*
X80390476Y-27878809D02*
X80390476Y-27974047D01*
X80390476Y-27974047D02*
X79914286Y-28069285D01*
X80819048Y-28402619D02*
X80819048Y-27735952D01*
X80819048Y-27926428D02*
X80866667Y-27831190D01*
X80866667Y-27831190D02*
X80914286Y-27783571D01*
X80914286Y-27783571D02*
X81009524Y-27735952D01*
X81009524Y-27735952D02*
X81104762Y-27735952D01*
X81438096Y-28402619D02*
X81438096Y-27735952D01*
X81438096Y-27402619D02*
X81390477Y-27450238D01*
X81390477Y-27450238D02*
X81438096Y-27497857D01*
X81438096Y-27497857D02*
X81485715Y-27450238D01*
X81485715Y-27450238D02*
X81438096Y-27402619D01*
X81438096Y-27402619D02*
X81438096Y-27497857D01*
X82295238Y-28355000D02*
X82200000Y-28402619D01*
X82200000Y-28402619D02*
X82009524Y-28402619D01*
X82009524Y-28402619D02*
X81914286Y-28355000D01*
X81914286Y-28355000D02*
X81866667Y-28259761D01*
X81866667Y-28259761D02*
X81866667Y-27878809D01*
X81866667Y-27878809D02*
X81914286Y-27783571D01*
X81914286Y-27783571D02*
X82009524Y-27735952D01*
X82009524Y-27735952D02*
X82200000Y-27735952D01*
X82200000Y-27735952D02*
X82295238Y-27783571D01*
X82295238Y-27783571D02*
X82342857Y-27878809D01*
X82342857Y-27878809D02*
X82342857Y-27974047D01*
X82342857Y-27974047D02*
X81866667Y-28069285D01*
X82723810Y-28355000D02*
X82819048Y-28402619D01*
X82819048Y-28402619D02*
X83009524Y-28402619D01*
X83009524Y-28402619D02*
X83104762Y-28355000D01*
X83104762Y-28355000D02*
X83152381Y-28259761D01*
X83152381Y-28259761D02*
X83152381Y-28212142D01*
X83152381Y-28212142D02*
X83104762Y-28116904D01*
X83104762Y-28116904D02*
X83009524Y-28069285D01*
X83009524Y-28069285D02*
X82866667Y-28069285D01*
X82866667Y-28069285D02*
X82771429Y-28021666D01*
X82771429Y-28021666D02*
X82723810Y-27926428D01*
X82723810Y-27926428D02*
X82723810Y-27878809D01*
X82723810Y-27878809D02*
X82771429Y-27783571D01*
X82771429Y-27783571D02*
X82866667Y-27735952D01*
X82866667Y-27735952D02*
X83009524Y-27735952D01*
X83009524Y-27735952D02*
X83104762Y-27783571D01*
X93599048Y-38181666D02*
X94360953Y-38181666D01*
X93980000Y-38562619D02*
X93980000Y-37800714D01*
X56165714Y-99522619D02*
X55594286Y-99522619D01*
X55880000Y-99522619D02*
X55880000Y-98522619D01*
X55880000Y-98522619D02*
X55784762Y-98665476D01*
X55784762Y-98665476D02*
X55689524Y-98760714D01*
X55689524Y-98760714D02*
X55594286Y-98808333D01*
X35179048Y-63581666D02*
X35940953Y-63581666D01*
X45801666Y-109600951D02*
X45801666Y-108839047D01*
X94218095Y-98522619D02*
X93741905Y-98522619D01*
X93741905Y-98522619D02*
X93694286Y-98998809D01*
X93694286Y-98998809D02*
X93741905Y-98951190D01*
X93741905Y-98951190D02*
X93837143Y-98903571D01*
X93837143Y-98903571D02*
X94075238Y-98903571D01*
X94075238Y-98903571D02*
X94170476Y-98951190D01*
X94170476Y-98951190D02*
X94218095Y-98998809D01*
X94218095Y-98998809D02*
X94265714Y-99094047D01*
X94265714Y-99094047D02*
X94265714Y-99332142D01*
X94265714Y-99332142D02*
X94218095Y-99427380D01*
X94218095Y-99427380D02*
X94170476Y-99475000D01*
X94170476Y-99475000D02*
X94075238Y-99522619D01*
X94075238Y-99522619D02*
X93837143Y-99522619D01*
X93837143Y-99522619D02*
X93741905Y-99475000D01*
X93741905Y-99475000D02*
X93694286Y-99427380D01*
X96982619Y-91296190D02*
X95982619Y-91296190D01*
X96077857Y-90867619D02*
X96030238Y-90820000D01*
X96030238Y-90820000D02*
X95982619Y-90724762D01*
X95982619Y-90724762D02*
X95982619Y-90486667D01*
X95982619Y-90486667D02*
X96030238Y-90391429D01*
X96030238Y-90391429D02*
X96077857Y-90343810D01*
X96077857Y-90343810D02*
X96173095Y-90296191D01*
X96173095Y-90296191D02*
X96268333Y-90296191D01*
X96268333Y-90296191D02*
X96411190Y-90343810D01*
X96411190Y-90343810D02*
X96982619Y-90915238D01*
X96982619Y-90915238D02*
X96982619Y-90296191D01*
X96887380Y-89296191D02*
X96935000Y-89343810D01*
X96935000Y-89343810D02*
X96982619Y-89486667D01*
X96982619Y-89486667D02*
X96982619Y-89581905D01*
X96982619Y-89581905D02*
X96935000Y-89724762D01*
X96935000Y-89724762D02*
X96839761Y-89820000D01*
X96839761Y-89820000D02*
X96744523Y-89867619D01*
X96744523Y-89867619D02*
X96554047Y-89915238D01*
X96554047Y-89915238D02*
X96411190Y-89915238D01*
X96411190Y-89915238D02*
X96220714Y-89867619D01*
X96220714Y-89867619D02*
X96125476Y-89820000D01*
X96125476Y-89820000D02*
X96030238Y-89724762D01*
X96030238Y-89724762D02*
X95982619Y-89581905D01*
X95982619Y-89581905D02*
X95982619Y-89486667D01*
X95982619Y-89486667D02*
X96030238Y-89343810D01*
X96030238Y-89343810D02*
X96077857Y-89296191D01*
X96982619Y-88105714D02*
X95982619Y-88105714D01*
X96458809Y-88105714D02*
X96458809Y-87534286D01*
X96982619Y-87534286D02*
X95982619Y-87534286D01*
X96315952Y-86629524D02*
X96982619Y-86629524D01*
X96315952Y-87058095D02*
X96839761Y-87058095D01*
X96839761Y-87058095D02*
X96935000Y-87010476D01*
X96935000Y-87010476D02*
X96982619Y-86915238D01*
X96982619Y-86915238D02*
X96982619Y-86772381D01*
X96982619Y-86772381D02*
X96935000Y-86677143D01*
X96935000Y-86677143D02*
X96887380Y-86629524D01*
X96982619Y-86153333D02*
X95982619Y-86153333D01*
X96363571Y-86153333D02*
X96315952Y-86058095D01*
X96315952Y-86058095D02*
X96315952Y-85867619D01*
X96315952Y-85867619D02*
X96363571Y-85772381D01*
X96363571Y-85772381D02*
X96411190Y-85724762D01*
X96411190Y-85724762D02*
X96506428Y-85677143D01*
X96506428Y-85677143D02*
X96792142Y-85677143D01*
X96792142Y-85677143D02*
X96887380Y-85724762D01*
X96887380Y-85724762D02*
X96935000Y-85772381D01*
X96935000Y-85772381D02*
X96982619Y-85867619D01*
X96982619Y-85867619D02*
X96982619Y-86058095D01*
X96982619Y-86058095D02*
X96935000Y-86153333D01*
X97363571Y-84200952D02*
X97315952Y-84248571D01*
X97315952Y-84248571D02*
X97173095Y-84343809D01*
X97173095Y-84343809D02*
X97077857Y-84391428D01*
X97077857Y-84391428D02*
X96935000Y-84439047D01*
X96935000Y-84439047D02*
X96696904Y-84486666D01*
X96696904Y-84486666D02*
X96506428Y-84486666D01*
X96506428Y-84486666D02*
X96268333Y-84439047D01*
X96268333Y-84439047D02*
X96125476Y-84391428D01*
X96125476Y-84391428D02*
X96030238Y-84343809D01*
X96030238Y-84343809D02*
X95887380Y-84248571D01*
X95887380Y-84248571D02*
X95839761Y-84200952D01*
X95982619Y-83962856D02*
X95982619Y-83391428D01*
X96982619Y-83677142D02*
X95982619Y-83677142D01*
X96887380Y-82486666D02*
X96935000Y-82534285D01*
X96935000Y-82534285D02*
X96982619Y-82677142D01*
X96982619Y-82677142D02*
X96982619Y-82772380D01*
X96982619Y-82772380D02*
X96935000Y-82915237D01*
X96935000Y-82915237D02*
X96839761Y-83010475D01*
X96839761Y-83010475D02*
X96744523Y-83058094D01*
X96744523Y-83058094D02*
X96554047Y-83105713D01*
X96554047Y-83105713D02*
X96411190Y-83105713D01*
X96411190Y-83105713D02*
X96220714Y-83058094D01*
X96220714Y-83058094D02*
X96125476Y-83010475D01*
X96125476Y-83010475D02*
X96030238Y-82915237D01*
X96030238Y-82915237D02*
X95982619Y-82772380D01*
X95982619Y-82772380D02*
X95982619Y-82677142D01*
X95982619Y-82677142D02*
X96030238Y-82534285D01*
X96030238Y-82534285D02*
X96077857Y-82486666D01*
X96696904Y-82105713D02*
X96696904Y-81629523D01*
X96982619Y-82200951D02*
X95982619Y-81867618D01*
X95982619Y-81867618D02*
X96982619Y-81534285D01*
X96982619Y-81153332D02*
X96982619Y-80962856D01*
X96982619Y-80962856D02*
X96935000Y-80867618D01*
X96935000Y-80867618D02*
X96887380Y-80819999D01*
X96887380Y-80819999D02*
X96744523Y-80724761D01*
X96744523Y-80724761D02*
X96554047Y-80677142D01*
X96554047Y-80677142D02*
X96173095Y-80677142D01*
X96173095Y-80677142D02*
X96077857Y-80724761D01*
X96077857Y-80724761D02*
X96030238Y-80772380D01*
X96030238Y-80772380D02*
X95982619Y-80867618D01*
X95982619Y-80867618D02*
X95982619Y-81058094D01*
X95982619Y-81058094D02*
X96030238Y-81153332D01*
X96030238Y-81153332D02*
X96077857Y-81200951D01*
X96077857Y-81200951D02*
X96173095Y-81248570D01*
X96173095Y-81248570D02*
X96411190Y-81248570D01*
X96411190Y-81248570D02*
X96506428Y-81200951D01*
X96506428Y-81200951D02*
X96554047Y-81153332D01*
X96554047Y-81153332D02*
X96601666Y-81058094D01*
X96601666Y-81058094D02*
X96601666Y-80867618D01*
X96601666Y-80867618D02*
X96554047Y-80772380D01*
X96554047Y-80772380D02*
X96506428Y-80724761D01*
X96506428Y-80724761D02*
X96411190Y-80677142D01*
X95982619Y-79772380D02*
X95982619Y-80248570D01*
X95982619Y-80248570D02*
X96458809Y-80296189D01*
X96458809Y-80296189D02*
X96411190Y-80248570D01*
X96411190Y-80248570D02*
X96363571Y-80153332D01*
X96363571Y-80153332D02*
X96363571Y-79915237D01*
X96363571Y-79915237D02*
X96411190Y-79819999D01*
X96411190Y-79819999D02*
X96458809Y-79772380D01*
X96458809Y-79772380D02*
X96554047Y-79724761D01*
X96554047Y-79724761D02*
X96792142Y-79724761D01*
X96792142Y-79724761D02*
X96887380Y-79772380D01*
X96887380Y-79772380D02*
X96935000Y-79819999D01*
X96935000Y-79819999D02*
X96982619Y-79915237D01*
X96982619Y-79915237D02*
X96982619Y-80153332D01*
X96982619Y-80153332D02*
X96935000Y-80248570D01*
X96935000Y-80248570D02*
X96887380Y-80296189D01*
X96315952Y-78867618D02*
X96982619Y-78867618D01*
X95935000Y-79105713D02*
X96649285Y-79343808D01*
X96649285Y-79343808D02*
X96649285Y-78724761D01*
X96411190Y-78200951D02*
X96363571Y-78296189D01*
X96363571Y-78296189D02*
X96315952Y-78343808D01*
X96315952Y-78343808D02*
X96220714Y-78391427D01*
X96220714Y-78391427D02*
X96173095Y-78391427D01*
X96173095Y-78391427D02*
X96077857Y-78343808D01*
X96077857Y-78343808D02*
X96030238Y-78296189D01*
X96030238Y-78296189D02*
X95982619Y-78200951D01*
X95982619Y-78200951D02*
X95982619Y-78010475D01*
X95982619Y-78010475D02*
X96030238Y-77915237D01*
X96030238Y-77915237D02*
X96077857Y-77867618D01*
X96077857Y-77867618D02*
X96173095Y-77819999D01*
X96173095Y-77819999D02*
X96220714Y-77819999D01*
X96220714Y-77819999D02*
X96315952Y-77867618D01*
X96315952Y-77867618D02*
X96363571Y-77915237D01*
X96363571Y-77915237D02*
X96411190Y-78010475D01*
X96411190Y-78010475D02*
X96411190Y-78200951D01*
X96411190Y-78200951D02*
X96458809Y-78296189D01*
X96458809Y-78296189D02*
X96506428Y-78343808D01*
X96506428Y-78343808D02*
X96601666Y-78391427D01*
X96601666Y-78391427D02*
X96792142Y-78391427D01*
X96792142Y-78391427D02*
X96887380Y-78343808D01*
X96887380Y-78343808D02*
X96935000Y-78296189D01*
X96935000Y-78296189D02*
X96982619Y-78200951D01*
X96982619Y-78200951D02*
X96982619Y-78010475D01*
X96982619Y-78010475D02*
X96935000Y-77915237D01*
X96935000Y-77915237D02*
X96887380Y-77867618D01*
X96887380Y-77867618D02*
X96792142Y-77819999D01*
X96792142Y-77819999D02*
X96601666Y-77819999D01*
X96601666Y-77819999D02*
X96506428Y-77867618D01*
X96506428Y-77867618D02*
X96458809Y-77915237D01*
X96458809Y-77915237D02*
X96411190Y-78010475D01*
X96696904Y-77439046D02*
X96696904Y-76962856D01*
X96982619Y-77534284D02*
X95982619Y-77200951D01*
X95982619Y-77200951D02*
X96982619Y-76867618D01*
X97363571Y-76629522D02*
X97315952Y-76581903D01*
X97315952Y-76581903D02*
X97173095Y-76486665D01*
X97173095Y-76486665D02*
X97077857Y-76439046D01*
X97077857Y-76439046D02*
X96935000Y-76391427D01*
X96935000Y-76391427D02*
X96696904Y-76343808D01*
X96696904Y-76343808D02*
X96506428Y-76343808D01*
X96506428Y-76343808D02*
X96268333Y-76391427D01*
X96268333Y-76391427D02*
X96125476Y-76439046D01*
X96125476Y-76439046D02*
X96030238Y-76486665D01*
X96030238Y-76486665D02*
X95887380Y-76581903D01*
X95887380Y-76581903D02*
X95839761Y-76629522D01*
X88519048Y-28021666D02*
X89280953Y-28021666D01*
X88519048Y-40721666D02*
X89280953Y-40721666D01*
X60674286Y-98617857D02*
X60721905Y-98570238D01*
X60721905Y-98570238D02*
X60817143Y-98522619D01*
X60817143Y-98522619D02*
X61055238Y-98522619D01*
X61055238Y-98522619D02*
X61150476Y-98570238D01*
X61150476Y-98570238D02*
X61198095Y-98617857D01*
X61198095Y-98617857D02*
X61245714Y-98713095D01*
X61245714Y-98713095D02*
X61245714Y-98808333D01*
X61245714Y-98808333D02*
X61198095Y-98951190D01*
X61198095Y-98951190D02*
X60626667Y-99522619D01*
X60626667Y-99522619D02*
X61245714Y-99522619D01*
X40259048Y-91521666D02*
X41020953Y-91521666D01*
X35179048Y-55961666D02*
X35940953Y-55961666D01*
X35560000Y-56342619D02*
X35560000Y-55580714D01*
X96950238Y-36265715D02*
X96902619Y-36360953D01*
X96902619Y-36360953D02*
X96902619Y-36503810D01*
X96902619Y-36503810D02*
X96950238Y-36646667D01*
X96950238Y-36646667D02*
X97045476Y-36741905D01*
X97045476Y-36741905D02*
X97140714Y-36789524D01*
X97140714Y-36789524D02*
X97331190Y-36837143D01*
X97331190Y-36837143D02*
X97474047Y-36837143D01*
X97474047Y-36837143D02*
X97664523Y-36789524D01*
X97664523Y-36789524D02*
X97759761Y-36741905D01*
X97759761Y-36741905D02*
X97855000Y-36646667D01*
X97855000Y-36646667D02*
X97902619Y-36503810D01*
X97902619Y-36503810D02*
X97902619Y-36408572D01*
X97902619Y-36408572D02*
X97855000Y-36265715D01*
X97855000Y-36265715D02*
X97807380Y-36218096D01*
X97807380Y-36218096D02*
X97474047Y-36218096D01*
X97474047Y-36218096D02*
X97474047Y-36408572D01*
X97902619Y-35360953D02*
X97378809Y-35360953D01*
X97378809Y-35360953D02*
X97283571Y-35408572D01*
X97283571Y-35408572D02*
X97235952Y-35503810D01*
X97235952Y-35503810D02*
X97235952Y-35694286D01*
X97235952Y-35694286D02*
X97283571Y-35789524D01*
X97855000Y-35360953D02*
X97902619Y-35456191D01*
X97902619Y-35456191D02*
X97902619Y-35694286D01*
X97902619Y-35694286D02*
X97855000Y-35789524D01*
X97855000Y-35789524D02*
X97759761Y-35837143D01*
X97759761Y-35837143D02*
X97664523Y-35837143D01*
X97664523Y-35837143D02*
X97569285Y-35789524D01*
X97569285Y-35789524D02*
X97521666Y-35694286D01*
X97521666Y-35694286D02*
X97521666Y-35456191D01*
X97521666Y-35456191D02*
X97474047Y-35360953D01*
X97902619Y-34884762D02*
X97235952Y-34884762D01*
X97426428Y-34884762D02*
X97331190Y-34837143D01*
X97331190Y-34837143D02*
X97283571Y-34789524D01*
X97283571Y-34789524D02*
X97235952Y-34694286D01*
X97235952Y-34694286D02*
X97235952Y-34599048D01*
X97902619Y-33837143D02*
X96902619Y-33837143D01*
X97855000Y-33837143D02*
X97902619Y-33932381D01*
X97902619Y-33932381D02*
X97902619Y-34122857D01*
X97902619Y-34122857D02*
X97855000Y-34218095D01*
X97855000Y-34218095D02*
X97807380Y-34265714D01*
X97807380Y-34265714D02*
X97712142Y-34313333D01*
X97712142Y-34313333D02*
X97426428Y-34313333D01*
X97426428Y-34313333D02*
X97331190Y-34265714D01*
X97331190Y-34265714D02*
X97283571Y-34218095D01*
X97283571Y-34218095D02*
X97235952Y-34122857D01*
X97235952Y-34122857D02*
X97235952Y-33932381D01*
X97235952Y-33932381D02*
X97283571Y-33837143D01*
X97855000Y-32980000D02*
X97902619Y-33075238D01*
X97902619Y-33075238D02*
X97902619Y-33265714D01*
X97902619Y-33265714D02*
X97855000Y-33360952D01*
X97855000Y-33360952D02*
X97759761Y-33408571D01*
X97759761Y-33408571D02*
X97378809Y-33408571D01*
X97378809Y-33408571D02*
X97283571Y-33360952D01*
X97283571Y-33360952D02*
X97235952Y-33265714D01*
X97235952Y-33265714D02*
X97235952Y-33075238D01*
X97235952Y-33075238D02*
X97283571Y-32980000D01*
X97283571Y-32980000D02*
X97378809Y-32932381D01*
X97378809Y-32932381D02*
X97474047Y-32932381D01*
X97474047Y-32932381D02*
X97569285Y-33408571D01*
X97235952Y-32503809D02*
X97902619Y-32503809D01*
X97331190Y-32503809D02*
X97283571Y-32456190D01*
X97283571Y-32456190D02*
X97235952Y-32360952D01*
X97235952Y-32360952D02*
X97235952Y-32218095D01*
X97235952Y-32218095D02*
X97283571Y-32122857D01*
X97283571Y-32122857D02*
X97378809Y-32075238D01*
X97378809Y-32075238D02*
X97902619Y-32075238D01*
X96902619Y-30932380D02*
X97902619Y-30694285D01*
X97902619Y-30694285D02*
X97188333Y-30503809D01*
X97188333Y-30503809D02*
X97902619Y-30313333D01*
X97902619Y-30313333D02*
X96902619Y-30075238D01*
X97902619Y-29265714D02*
X97378809Y-29265714D01*
X97378809Y-29265714D02*
X97283571Y-29313333D01*
X97283571Y-29313333D02*
X97235952Y-29408571D01*
X97235952Y-29408571D02*
X97235952Y-29599047D01*
X97235952Y-29599047D02*
X97283571Y-29694285D01*
X97855000Y-29265714D02*
X97902619Y-29360952D01*
X97902619Y-29360952D02*
X97902619Y-29599047D01*
X97902619Y-29599047D02*
X97855000Y-29694285D01*
X97855000Y-29694285D02*
X97759761Y-29741904D01*
X97759761Y-29741904D02*
X97664523Y-29741904D01*
X97664523Y-29741904D02*
X97569285Y-29694285D01*
X97569285Y-29694285D02*
X97521666Y-29599047D01*
X97521666Y-29599047D02*
X97521666Y-29360952D01*
X97521666Y-29360952D02*
X97474047Y-29265714D01*
X97235952Y-28932380D02*
X97235952Y-28551428D01*
X96902619Y-28789523D02*
X97759761Y-28789523D01*
X97759761Y-28789523D02*
X97855000Y-28741904D01*
X97855000Y-28741904D02*
X97902619Y-28646666D01*
X97902619Y-28646666D02*
X97902619Y-28551428D01*
X97855000Y-27837142D02*
X97902619Y-27932380D01*
X97902619Y-27932380D02*
X97902619Y-28122856D01*
X97902619Y-28122856D02*
X97855000Y-28218094D01*
X97855000Y-28218094D02*
X97759761Y-28265713D01*
X97759761Y-28265713D02*
X97378809Y-28265713D01*
X97378809Y-28265713D02*
X97283571Y-28218094D01*
X97283571Y-28218094D02*
X97235952Y-28122856D01*
X97235952Y-28122856D02*
X97235952Y-27932380D01*
X97235952Y-27932380D02*
X97283571Y-27837142D01*
X97283571Y-27837142D02*
X97378809Y-27789523D01*
X97378809Y-27789523D02*
X97474047Y-27789523D01*
X97474047Y-27789523D02*
X97569285Y-28265713D01*
X97902619Y-27360951D02*
X97235952Y-27360951D01*
X97426428Y-27360951D02*
X97331190Y-27313332D01*
X97331190Y-27313332D02*
X97283571Y-27265713D01*
X97283571Y-27265713D02*
X97235952Y-27170475D01*
X97235952Y-27170475D02*
X97235952Y-27075237D01*
X97902619Y-26741903D02*
X97235952Y-26741903D01*
X96902619Y-26741903D02*
X96950238Y-26789522D01*
X96950238Y-26789522D02*
X96997857Y-26741903D01*
X96997857Y-26741903D02*
X96950238Y-26694284D01*
X96950238Y-26694284D02*
X96902619Y-26741903D01*
X96902619Y-26741903D02*
X96997857Y-26741903D01*
X97235952Y-26265713D02*
X97902619Y-26265713D01*
X97331190Y-26265713D02*
X97283571Y-26218094D01*
X97283571Y-26218094D02*
X97235952Y-26122856D01*
X97235952Y-26122856D02*
X97235952Y-25979999D01*
X97235952Y-25979999D02*
X97283571Y-25884761D01*
X97283571Y-25884761D02*
X97378809Y-25837142D01*
X97378809Y-25837142D02*
X97902619Y-25837142D01*
X97235952Y-24932380D02*
X98045476Y-24932380D01*
X98045476Y-24932380D02*
X98140714Y-24979999D01*
X98140714Y-24979999D02*
X98188333Y-25027618D01*
X98188333Y-25027618D02*
X98235952Y-25122856D01*
X98235952Y-25122856D02*
X98235952Y-25265713D01*
X98235952Y-25265713D02*
X98188333Y-25360951D01*
X97855000Y-24932380D02*
X97902619Y-25027618D01*
X97902619Y-25027618D02*
X97902619Y-25218094D01*
X97902619Y-25218094D02*
X97855000Y-25313332D01*
X97855000Y-25313332D02*
X97807380Y-25360951D01*
X97807380Y-25360951D02*
X97712142Y-25408570D01*
X97712142Y-25408570D02*
X97426428Y-25408570D01*
X97426428Y-25408570D02*
X97331190Y-25360951D01*
X97331190Y-25360951D02*
X97283571Y-25313332D01*
X97283571Y-25313332D02*
X97235952Y-25218094D01*
X97235952Y-25218094D02*
X97235952Y-25027618D01*
X97235952Y-25027618D02*
X97283571Y-24932380D01*
X99475000Y-35860952D02*
X99522619Y-35718095D01*
X99522619Y-35718095D02*
X99522619Y-35480000D01*
X99522619Y-35480000D02*
X99475000Y-35384762D01*
X99475000Y-35384762D02*
X99427380Y-35337143D01*
X99427380Y-35337143D02*
X99332142Y-35289524D01*
X99332142Y-35289524D02*
X99236904Y-35289524D01*
X99236904Y-35289524D02*
X99141666Y-35337143D01*
X99141666Y-35337143D02*
X99094047Y-35384762D01*
X99094047Y-35384762D02*
X99046428Y-35480000D01*
X99046428Y-35480000D02*
X98998809Y-35670476D01*
X98998809Y-35670476D02*
X98951190Y-35765714D01*
X98951190Y-35765714D02*
X98903571Y-35813333D01*
X98903571Y-35813333D02*
X98808333Y-35860952D01*
X98808333Y-35860952D02*
X98713095Y-35860952D01*
X98713095Y-35860952D02*
X98617857Y-35813333D01*
X98617857Y-35813333D02*
X98570238Y-35765714D01*
X98570238Y-35765714D02*
X98522619Y-35670476D01*
X98522619Y-35670476D02*
X98522619Y-35432381D01*
X98522619Y-35432381D02*
X98570238Y-35289524D01*
X98855952Y-34956190D02*
X99522619Y-34718095D01*
X98855952Y-34480000D02*
X99522619Y-34718095D01*
X99522619Y-34718095D02*
X99760714Y-34813333D01*
X99760714Y-34813333D02*
X99808333Y-34860952D01*
X99808333Y-34860952D02*
X99855952Y-34956190D01*
X99475000Y-34146666D02*
X99522619Y-34051428D01*
X99522619Y-34051428D02*
X99522619Y-33860952D01*
X99522619Y-33860952D02*
X99475000Y-33765714D01*
X99475000Y-33765714D02*
X99379761Y-33718095D01*
X99379761Y-33718095D02*
X99332142Y-33718095D01*
X99332142Y-33718095D02*
X99236904Y-33765714D01*
X99236904Y-33765714D02*
X99189285Y-33860952D01*
X99189285Y-33860952D02*
X99189285Y-34003809D01*
X99189285Y-34003809D02*
X99141666Y-34099047D01*
X99141666Y-34099047D02*
X99046428Y-34146666D01*
X99046428Y-34146666D02*
X98998809Y-34146666D01*
X98998809Y-34146666D02*
X98903571Y-34099047D01*
X98903571Y-34099047D02*
X98855952Y-34003809D01*
X98855952Y-34003809D02*
X98855952Y-33860952D01*
X98855952Y-33860952D02*
X98903571Y-33765714D01*
X98855952Y-33432380D02*
X98855952Y-33051428D01*
X98522619Y-33289523D02*
X99379761Y-33289523D01*
X99379761Y-33289523D02*
X99475000Y-33241904D01*
X99475000Y-33241904D02*
X99522619Y-33146666D01*
X99522619Y-33146666D02*
X99522619Y-33051428D01*
X99475000Y-32337142D02*
X99522619Y-32432380D01*
X99522619Y-32432380D02*
X99522619Y-32622856D01*
X99522619Y-32622856D02*
X99475000Y-32718094D01*
X99475000Y-32718094D02*
X99379761Y-32765713D01*
X99379761Y-32765713D02*
X98998809Y-32765713D01*
X98998809Y-32765713D02*
X98903571Y-32718094D01*
X98903571Y-32718094D02*
X98855952Y-32622856D01*
X98855952Y-32622856D02*
X98855952Y-32432380D01*
X98855952Y-32432380D02*
X98903571Y-32337142D01*
X98903571Y-32337142D02*
X98998809Y-32289523D01*
X98998809Y-32289523D02*
X99094047Y-32289523D01*
X99094047Y-32289523D02*
X99189285Y-32765713D01*
X99522619Y-31860951D02*
X98855952Y-31860951D01*
X98951190Y-31860951D02*
X98903571Y-31813332D01*
X98903571Y-31813332D02*
X98855952Y-31718094D01*
X98855952Y-31718094D02*
X98855952Y-31575237D01*
X98855952Y-31575237D02*
X98903571Y-31479999D01*
X98903571Y-31479999D02*
X98998809Y-31432380D01*
X98998809Y-31432380D02*
X99522619Y-31432380D01*
X98998809Y-31432380D02*
X98903571Y-31384761D01*
X98903571Y-31384761D02*
X98855952Y-31289523D01*
X98855952Y-31289523D02*
X98855952Y-31146666D01*
X98855952Y-31146666D02*
X98903571Y-31051427D01*
X98903571Y-31051427D02*
X98998809Y-31003808D01*
X98998809Y-31003808D02*
X99522619Y-31003808D01*
X98998809Y-29432380D02*
X99046428Y-29289523D01*
X99046428Y-29289523D02*
X99094047Y-29241904D01*
X99094047Y-29241904D02*
X99189285Y-29194285D01*
X99189285Y-29194285D02*
X99332142Y-29194285D01*
X99332142Y-29194285D02*
X99427380Y-29241904D01*
X99427380Y-29241904D02*
X99475000Y-29289523D01*
X99475000Y-29289523D02*
X99522619Y-29384761D01*
X99522619Y-29384761D02*
X99522619Y-29765713D01*
X99522619Y-29765713D02*
X98522619Y-29765713D01*
X98522619Y-29765713D02*
X98522619Y-29432380D01*
X98522619Y-29432380D02*
X98570238Y-29337142D01*
X98570238Y-29337142D02*
X98617857Y-29289523D01*
X98617857Y-29289523D02*
X98713095Y-29241904D01*
X98713095Y-29241904D02*
X98808333Y-29241904D01*
X98808333Y-29241904D02*
X98903571Y-29289523D01*
X98903571Y-29289523D02*
X98951190Y-29337142D01*
X98951190Y-29337142D02*
X98998809Y-29432380D01*
X98998809Y-29432380D02*
X98998809Y-29765713D01*
X99522619Y-28622856D02*
X99475000Y-28718094D01*
X99475000Y-28718094D02*
X99427380Y-28765713D01*
X99427380Y-28765713D02*
X99332142Y-28813332D01*
X99332142Y-28813332D02*
X99046428Y-28813332D01*
X99046428Y-28813332D02*
X98951190Y-28765713D01*
X98951190Y-28765713D02*
X98903571Y-28718094D01*
X98903571Y-28718094D02*
X98855952Y-28622856D01*
X98855952Y-28622856D02*
X98855952Y-28479999D01*
X98855952Y-28479999D02*
X98903571Y-28384761D01*
X98903571Y-28384761D02*
X98951190Y-28337142D01*
X98951190Y-28337142D02*
X99046428Y-28289523D01*
X99046428Y-28289523D02*
X99332142Y-28289523D01*
X99332142Y-28289523D02*
X99427380Y-28337142D01*
X99427380Y-28337142D02*
X99475000Y-28384761D01*
X99475000Y-28384761D02*
X99522619Y-28479999D01*
X99522619Y-28479999D02*
X99522619Y-28622856D01*
X99522619Y-27432380D02*
X98998809Y-27432380D01*
X98998809Y-27432380D02*
X98903571Y-27479999D01*
X98903571Y-27479999D02*
X98855952Y-27575237D01*
X98855952Y-27575237D02*
X98855952Y-27765713D01*
X98855952Y-27765713D02*
X98903571Y-27860951D01*
X99475000Y-27432380D02*
X99522619Y-27527618D01*
X99522619Y-27527618D02*
X99522619Y-27765713D01*
X99522619Y-27765713D02*
X99475000Y-27860951D01*
X99475000Y-27860951D02*
X99379761Y-27908570D01*
X99379761Y-27908570D02*
X99284523Y-27908570D01*
X99284523Y-27908570D02*
X99189285Y-27860951D01*
X99189285Y-27860951D02*
X99141666Y-27765713D01*
X99141666Y-27765713D02*
X99141666Y-27527618D01*
X99141666Y-27527618D02*
X99094047Y-27432380D01*
X99522619Y-26956189D02*
X98855952Y-26956189D01*
X99046428Y-26956189D02*
X98951190Y-26908570D01*
X98951190Y-26908570D02*
X98903571Y-26860951D01*
X98903571Y-26860951D02*
X98855952Y-26765713D01*
X98855952Y-26765713D02*
X98855952Y-26670475D01*
X99522619Y-25908570D02*
X98522619Y-25908570D01*
X99475000Y-25908570D02*
X99522619Y-26003808D01*
X99522619Y-26003808D02*
X99522619Y-26194284D01*
X99522619Y-26194284D02*
X99475000Y-26289522D01*
X99475000Y-26289522D02*
X99427380Y-26337141D01*
X99427380Y-26337141D02*
X99332142Y-26384760D01*
X99332142Y-26384760D02*
X99046428Y-26384760D01*
X99046428Y-26384760D02*
X98951190Y-26337141D01*
X98951190Y-26337141D02*
X98903571Y-26289522D01*
X98903571Y-26289522D02*
X98855952Y-26194284D01*
X98855952Y-26194284D02*
X98855952Y-26003808D01*
X98855952Y-26003808D02*
X98903571Y-25908570D01*
X101523571Y-37456191D02*
X101475952Y-37503810D01*
X101475952Y-37503810D02*
X101333095Y-37599048D01*
X101333095Y-37599048D02*
X101237857Y-37646667D01*
X101237857Y-37646667D02*
X101095000Y-37694286D01*
X101095000Y-37694286D02*
X100856904Y-37741905D01*
X100856904Y-37741905D02*
X100666428Y-37741905D01*
X100666428Y-37741905D02*
X100428333Y-37694286D01*
X100428333Y-37694286D02*
X100285476Y-37646667D01*
X100285476Y-37646667D02*
X100190238Y-37599048D01*
X100190238Y-37599048D02*
X100047380Y-37503810D01*
X100047380Y-37503810D02*
X99999761Y-37456191D01*
X100618809Y-36741905D02*
X100666428Y-36599048D01*
X100666428Y-36599048D02*
X100714047Y-36551429D01*
X100714047Y-36551429D02*
X100809285Y-36503810D01*
X100809285Y-36503810D02*
X100952142Y-36503810D01*
X100952142Y-36503810D02*
X101047380Y-36551429D01*
X101047380Y-36551429D02*
X101095000Y-36599048D01*
X101095000Y-36599048D02*
X101142619Y-36694286D01*
X101142619Y-36694286D02*
X101142619Y-37075238D01*
X101142619Y-37075238D02*
X100142619Y-37075238D01*
X100142619Y-37075238D02*
X100142619Y-36741905D01*
X100142619Y-36741905D02*
X100190238Y-36646667D01*
X100190238Y-36646667D02*
X100237857Y-36599048D01*
X100237857Y-36599048D02*
X100333095Y-36551429D01*
X100333095Y-36551429D02*
X100428333Y-36551429D01*
X100428333Y-36551429D02*
X100523571Y-36599048D01*
X100523571Y-36599048D02*
X100571190Y-36646667D01*
X100571190Y-36646667D02*
X100618809Y-36741905D01*
X100618809Y-36741905D02*
X100618809Y-37075238D01*
X101142619Y-35932381D02*
X101095000Y-36027619D01*
X101095000Y-36027619D02*
X101047380Y-36075238D01*
X101047380Y-36075238D02*
X100952142Y-36122857D01*
X100952142Y-36122857D02*
X100666428Y-36122857D01*
X100666428Y-36122857D02*
X100571190Y-36075238D01*
X100571190Y-36075238D02*
X100523571Y-36027619D01*
X100523571Y-36027619D02*
X100475952Y-35932381D01*
X100475952Y-35932381D02*
X100475952Y-35789524D01*
X100475952Y-35789524D02*
X100523571Y-35694286D01*
X100523571Y-35694286D02*
X100571190Y-35646667D01*
X100571190Y-35646667D02*
X100666428Y-35599048D01*
X100666428Y-35599048D02*
X100952142Y-35599048D01*
X100952142Y-35599048D02*
X101047380Y-35646667D01*
X101047380Y-35646667D02*
X101095000Y-35694286D01*
X101095000Y-35694286D02*
X101142619Y-35789524D01*
X101142619Y-35789524D02*
X101142619Y-35932381D01*
X101142619Y-34741905D02*
X100618809Y-34741905D01*
X100618809Y-34741905D02*
X100523571Y-34789524D01*
X100523571Y-34789524D02*
X100475952Y-34884762D01*
X100475952Y-34884762D02*
X100475952Y-35075238D01*
X100475952Y-35075238D02*
X100523571Y-35170476D01*
X101095000Y-34741905D02*
X101142619Y-34837143D01*
X101142619Y-34837143D02*
X101142619Y-35075238D01*
X101142619Y-35075238D02*
X101095000Y-35170476D01*
X101095000Y-35170476D02*
X100999761Y-35218095D01*
X100999761Y-35218095D02*
X100904523Y-35218095D01*
X100904523Y-35218095D02*
X100809285Y-35170476D01*
X100809285Y-35170476D02*
X100761666Y-35075238D01*
X100761666Y-35075238D02*
X100761666Y-34837143D01*
X100761666Y-34837143D02*
X100714047Y-34741905D01*
X101142619Y-34265714D02*
X100475952Y-34265714D01*
X100666428Y-34265714D02*
X100571190Y-34218095D01*
X100571190Y-34218095D02*
X100523571Y-34170476D01*
X100523571Y-34170476D02*
X100475952Y-34075238D01*
X100475952Y-34075238D02*
X100475952Y-33980000D01*
X101142619Y-33218095D02*
X100142619Y-33218095D01*
X101095000Y-33218095D02*
X101142619Y-33313333D01*
X101142619Y-33313333D02*
X101142619Y-33503809D01*
X101142619Y-33503809D02*
X101095000Y-33599047D01*
X101095000Y-33599047D02*
X101047380Y-33646666D01*
X101047380Y-33646666D02*
X100952142Y-33694285D01*
X100952142Y-33694285D02*
X100666428Y-33694285D01*
X100666428Y-33694285D02*
X100571190Y-33646666D01*
X100571190Y-33646666D02*
X100523571Y-33599047D01*
X100523571Y-33599047D02*
X100475952Y-33503809D01*
X100475952Y-33503809D02*
X100475952Y-33313333D01*
X100475952Y-33313333D02*
X100523571Y-33218095D01*
X100142619Y-32122856D02*
X101142619Y-31789523D01*
X101142619Y-31789523D02*
X100142619Y-31456190D01*
X101095000Y-30741904D02*
X101142619Y-30837142D01*
X101142619Y-30837142D02*
X101142619Y-31027618D01*
X101142619Y-31027618D02*
X101095000Y-31122856D01*
X101095000Y-31122856D02*
X100999761Y-31170475D01*
X100999761Y-31170475D02*
X100618809Y-31170475D01*
X100618809Y-31170475D02*
X100523571Y-31122856D01*
X100523571Y-31122856D02*
X100475952Y-31027618D01*
X100475952Y-31027618D02*
X100475952Y-30837142D01*
X100475952Y-30837142D02*
X100523571Y-30741904D01*
X100523571Y-30741904D02*
X100618809Y-30694285D01*
X100618809Y-30694285D02*
X100714047Y-30694285D01*
X100714047Y-30694285D02*
X100809285Y-31170475D01*
X101142619Y-30265713D02*
X100475952Y-30265713D01*
X100666428Y-30265713D02*
X100571190Y-30218094D01*
X100571190Y-30218094D02*
X100523571Y-30170475D01*
X100523571Y-30170475D02*
X100475952Y-30075237D01*
X100475952Y-30075237D02*
X100475952Y-29979999D01*
X101095000Y-29694284D02*
X101142619Y-29599046D01*
X101142619Y-29599046D02*
X101142619Y-29408570D01*
X101142619Y-29408570D02*
X101095000Y-29313332D01*
X101095000Y-29313332D02*
X100999761Y-29265713D01*
X100999761Y-29265713D02*
X100952142Y-29265713D01*
X100952142Y-29265713D02*
X100856904Y-29313332D01*
X100856904Y-29313332D02*
X100809285Y-29408570D01*
X100809285Y-29408570D02*
X100809285Y-29551427D01*
X100809285Y-29551427D02*
X100761666Y-29646665D01*
X100761666Y-29646665D02*
X100666428Y-29694284D01*
X100666428Y-29694284D02*
X100618809Y-29694284D01*
X100618809Y-29694284D02*
X100523571Y-29646665D01*
X100523571Y-29646665D02*
X100475952Y-29551427D01*
X100475952Y-29551427D02*
X100475952Y-29408570D01*
X100475952Y-29408570D02*
X100523571Y-29313332D01*
X101142619Y-28837141D02*
X100475952Y-28837141D01*
X100142619Y-28837141D02*
X100190238Y-28884760D01*
X100190238Y-28884760D02*
X100237857Y-28837141D01*
X100237857Y-28837141D02*
X100190238Y-28789522D01*
X100190238Y-28789522D02*
X100142619Y-28837141D01*
X100142619Y-28837141D02*
X100237857Y-28837141D01*
X101142619Y-28218094D02*
X101095000Y-28313332D01*
X101095000Y-28313332D02*
X101047380Y-28360951D01*
X101047380Y-28360951D02*
X100952142Y-28408570D01*
X100952142Y-28408570D02*
X100666428Y-28408570D01*
X100666428Y-28408570D02*
X100571190Y-28360951D01*
X100571190Y-28360951D02*
X100523571Y-28313332D01*
X100523571Y-28313332D02*
X100475952Y-28218094D01*
X100475952Y-28218094D02*
X100475952Y-28075237D01*
X100475952Y-28075237D02*
X100523571Y-27979999D01*
X100523571Y-27979999D02*
X100571190Y-27932380D01*
X100571190Y-27932380D02*
X100666428Y-27884761D01*
X100666428Y-27884761D02*
X100952142Y-27884761D01*
X100952142Y-27884761D02*
X101047380Y-27932380D01*
X101047380Y-27932380D02*
X101095000Y-27979999D01*
X101095000Y-27979999D02*
X101142619Y-28075237D01*
X101142619Y-28075237D02*
X101142619Y-28218094D01*
X100475952Y-27456189D02*
X101142619Y-27456189D01*
X100571190Y-27456189D02*
X100523571Y-27408570D01*
X100523571Y-27408570D02*
X100475952Y-27313332D01*
X100475952Y-27313332D02*
X100475952Y-27170475D01*
X100475952Y-27170475D02*
X100523571Y-27075237D01*
X100523571Y-27075237D02*
X100618809Y-27027618D01*
X100618809Y-27027618D02*
X101142619Y-27027618D01*
X101142619Y-25265713D02*
X101142619Y-25837141D01*
X101142619Y-25551427D02*
X100142619Y-25551427D01*
X100142619Y-25551427D02*
X100285476Y-25646665D01*
X100285476Y-25646665D02*
X100380714Y-25741903D01*
X100380714Y-25741903D02*
X100428333Y-25837141D01*
X101047380Y-24837141D02*
X101095000Y-24789522D01*
X101095000Y-24789522D02*
X101142619Y-24837141D01*
X101142619Y-24837141D02*
X101095000Y-24884760D01*
X101095000Y-24884760D02*
X101047380Y-24837141D01*
X101047380Y-24837141D02*
X101142619Y-24837141D01*
X101142619Y-23837142D02*
X101142619Y-24408570D01*
X101142619Y-24122856D02*
X100142619Y-24122856D01*
X100142619Y-24122856D02*
X100285476Y-24218094D01*
X100285476Y-24218094D02*
X100380714Y-24313332D01*
X100380714Y-24313332D02*
X100428333Y-24408570D01*
X101523571Y-23503808D02*
X101475952Y-23456189D01*
X101475952Y-23456189D02*
X101333095Y-23360951D01*
X101333095Y-23360951D02*
X101237857Y-23313332D01*
X101237857Y-23313332D02*
X101095000Y-23265713D01*
X101095000Y-23265713D02*
X100856904Y-23218094D01*
X100856904Y-23218094D02*
X100666428Y-23218094D01*
X100666428Y-23218094D02*
X100428333Y-23265713D01*
X100428333Y-23265713D02*
X100285476Y-23313332D01*
X100285476Y-23313332D02*
X100190238Y-23360951D01*
X100190238Y-23360951D02*
X100047380Y-23456189D01*
X100047380Y-23456189D02*
X99999761Y-23503808D01*
X63309524Y-58882619D02*
X63500000Y-58882619D01*
X63500000Y-58882619D02*
X63595238Y-58835000D01*
X63595238Y-58835000D02*
X63642857Y-58787380D01*
X63642857Y-58787380D02*
X63738095Y-58644523D01*
X63738095Y-58644523D02*
X63785714Y-58454047D01*
X63785714Y-58454047D02*
X63785714Y-58073095D01*
X63785714Y-58073095D02*
X63738095Y-57977857D01*
X63738095Y-57977857D02*
X63690476Y-57930238D01*
X63690476Y-57930238D02*
X63595238Y-57882619D01*
X63595238Y-57882619D02*
X63404762Y-57882619D01*
X63404762Y-57882619D02*
X63309524Y-57930238D01*
X63309524Y-57930238D02*
X63261905Y-57977857D01*
X63261905Y-57977857D02*
X63214286Y-58073095D01*
X63214286Y-58073095D02*
X63214286Y-58311190D01*
X63214286Y-58311190D02*
X63261905Y-58406428D01*
X63261905Y-58406428D02*
X63309524Y-58454047D01*
X63309524Y-58454047D02*
X63404762Y-58501666D01*
X63404762Y-58501666D02*
X63595238Y-58501666D01*
X63595238Y-58501666D02*
X63690476Y-58454047D01*
X63690476Y-58454047D02*
X63738095Y-58406428D01*
X63738095Y-58406428D02*
X63785714Y-58311190D01*
X64778095Y-81695000D02*
X64920952Y-81742619D01*
X64920952Y-81742619D02*
X65159047Y-81742619D01*
X65159047Y-81742619D02*
X65254285Y-81695000D01*
X65254285Y-81695000D02*
X65301904Y-81647380D01*
X65301904Y-81647380D02*
X65349523Y-81552142D01*
X65349523Y-81552142D02*
X65349523Y-81456904D01*
X65349523Y-81456904D02*
X65301904Y-81361666D01*
X65301904Y-81361666D02*
X65254285Y-81314047D01*
X65254285Y-81314047D02*
X65159047Y-81266428D01*
X65159047Y-81266428D02*
X64968571Y-81218809D01*
X64968571Y-81218809D02*
X64873333Y-81171190D01*
X64873333Y-81171190D02*
X64825714Y-81123571D01*
X64825714Y-81123571D02*
X64778095Y-81028333D01*
X64778095Y-81028333D02*
X64778095Y-80933095D01*
X64778095Y-80933095D02*
X64825714Y-80837857D01*
X64825714Y-80837857D02*
X64873333Y-80790238D01*
X64873333Y-80790238D02*
X64968571Y-80742619D01*
X64968571Y-80742619D02*
X65206666Y-80742619D01*
X65206666Y-80742619D02*
X65349523Y-80790238D01*
X66349523Y-81647380D02*
X66301904Y-81695000D01*
X66301904Y-81695000D02*
X66159047Y-81742619D01*
X66159047Y-81742619D02*
X66063809Y-81742619D01*
X66063809Y-81742619D02*
X65920952Y-81695000D01*
X65920952Y-81695000D02*
X65825714Y-81599761D01*
X65825714Y-81599761D02*
X65778095Y-81504523D01*
X65778095Y-81504523D02*
X65730476Y-81314047D01*
X65730476Y-81314047D02*
X65730476Y-81171190D01*
X65730476Y-81171190D02*
X65778095Y-80980714D01*
X65778095Y-80980714D02*
X65825714Y-80885476D01*
X65825714Y-80885476D02*
X65920952Y-80790238D01*
X65920952Y-80790238D02*
X66063809Y-80742619D01*
X66063809Y-80742619D02*
X66159047Y-80742619D01*
X66159047Y-80742619D02*
X66301904Y-80790238D01*
X66301904Y-80790238D02*
X66349523Y-80837857D01*
X66682857Y-80742619D02*
X67349523Y-80742619D01*
X67349523Y-80742619D02*
X66920952Y-81742619D01*
X40259048Y-99141666D02*
X41020953Y-99141666D01*
X40640000Y-99522619D02*
X40640000Y-98760714D01*
X90749523Y-69042619D02*
X90416190Y-68566428D01*
X90178095Y-69042619D02*
X90178095Y-68042619D01*
X90178095Y-68042619D02*
X90559047Y-68042619D01*
X90559047Y-68042619D02*
X90654285Y-68090238D01*
X90654285Y-68090238D02*
X90701904Y-68137857D01*
X90701904Y-68137857D02*
X90749523Y-68233095D01*
X90749523Y-68233095D02*
X90749523Y-68375952D01*
X90749523Y-68375952D02*
X90701904Y-68471190D01*
X90701904Y-68471190D02*
X90654285Y-68518809D01*
X90654285Y-68518809D02*
X90559047Y-68566428D01*
X90559047Y-68566428D02*
X90178095Y-68566428D01*
X91130476Y-68756904D02*
X91606666Y-68756904D01*
X91035238Y-69042619D02*
X91368571Y-68042619D01*
X91368571Y-68042619D02*
X91701904Y-69042619D01*
X91940000Y-68042619D02*
X92178095Y-69042619D01*
X92178095Y-69042619D02*
X92368571Y-68328333D01*
X92368571Y-68328333D02*
X92559047Y-69042619D01*
X92559047Y-69042619D02*
X92797143Y-68042619D01*
X87638095Y-81695000D02*
X87780952Y-81742619D01*
X87780952Y-81742619D02*
X88019047Y-81742619D01*
X88019047Y-81742619D02*
X88114285Y-81695000D01*
X88114285Y-81695000D02*
X88161904Y-81647380D01*
X88161904Y-81647380D02*
X88209523Y-81552142D01*
X88209523Y-81552142D02*
X88209523Y-81456904D01*
X88209523Y-81456904D02*
X88161904Y-81361666D01*
X88161904Y-81361666D02*
X88114285Y-81314047D01*
X88114285Y-81314047D02*
X88019047Y-81266428D01*
X88019047Y-81266428D02*
X87828571Y-81218809D01*
X87828571Y-81218809D02*
X87733333Y-81171190D01*
X87733333Y-81171190D02*
X87685714Y-81123571D01*
X87685714Y-81123571D02*
X87638095Y-81028333D01*
X87638095Y-81028333D02*
X87638095Y-80933095D01*
X87638095Y-80933095D02*
X87685714Y-80837857D01*
X87685714Y-80837857D02*
X87733333Y-80790238D01*
X87733333Y-80790238D02*
X87828571Y-80742619D01*
X87828571Y-80742619D02*
X88066666Y-80742619D01*
X88066666Y-80742619D02*
X88209523Y-80790238D01*
X88638095Y-81742619D02*
X88638095Y-80742619D01*
X88638095Y-80742619D02*
X88876190Y-80742619D01*
X88876190Y-80742619D02*
X89019047Y-80790238D01*
X89019047Y-80790238D02*
X89114285Y-80885476D01*
X89114285Y-80885476D02*
X89161904Y-80980714D01*
X89161904Y-80980714D02*
X89209523Y-81171190D01*
X89209523Y-81171190D02*
X89209523Y-81314047D01*
X89209523Y-81314047D02*
X89161904Y-81504523D01*
X89161904Y-81504523D02*
X89114285Y-81599761D01*
X89114285Y-81599761D02*
X89019047Y-81695000D01*
X89019047Y-81695000D02*
X88876190Y-81742619D01*
X88876190Y-81742619D02*
X88638095Y-81742619D01*
X89590476Y-80837857D02*
X89638095Y-80790238D01*
X89638095Y-80790238D02*
X89733333Y-80742619D01*
X89733333Y-80742619D02*
X89971428Y-80742619D01*
X89971428Y-80742619D02*
X90066666Y-80790238D01*
X90066666Y-80790238D02*
X90114285Y-80837857D01*
X90114285Y-80837857D02*
X90161904Y-80933095D01*
X90161904Y-80933095D02*
X90161904Y-81028333D01*
X90161904Y-81028333D02*
X90114285Y-81171190D01*
X90114285Y-81171190D02*
X89542857Y-81742619D01*
X89542857Y-81742619D02*
X90161904Y-81742619D01*
X63309523Y-69042619D02*
X62738095Y-69042619D01*
X63023809Y-69042619D02*
X63023809Y-68042619D01*
X63023809Y-68042619D02*
X62928571Y-68185476D01*
X62928571Y-68185476D02*
X62833333Y-68280714D01*
X62833333Y-68280714D02*
X62738095Y-68328333D01*
X63928571Y-68042619D02*
X64023809Y-68042619D01*
X64023809Y-68042619D02*
X64119047Y-68090238D01*
X64119047Y-68090238D02*
X64166666Y-68137857D01*
X64166666Y-68137857D02*
X64214285Y-68233095D01*
X64214285Y-68233095D02*
X64261904Y-68423571D01*
X64261904Y-68423571D02*
X64261904Y-68661666D01*
X64261904Y-68661666D02*
X64214285Y-68852142D01*
X64214285Y-68852142D02*
X64166666Y-68947380D01*
X64166666Y-68947380D02*
X64119047Y-68995000D01*
X64119047Y-68995000D02*
X64023809Y-69042619D01*
X64023809Y-69042619D02*
X63928571Y-69042619D01*
X63928571Y-69042619D02*
X63833333Y-68995000D01*
X63833333Y-68995000D02*
X63785714Y-68947380D01*
X63785714Y-68947380D02*
X63738095Y-68852142D01*
X63738095Y-68852142D02*
X63690476Y-68661666D01*
X63690476Y-68661666D02*
X63690476Y-68423571D01*
X63690476Y-68423571D02*
X63738095Y-68233095D01*
X63738095Y-68233095D02*
X63785714Y-68137857D01*
X63785714Y-68137857D02*
X63833333Y-68090238D01*
X63833333Y-68090238D02*
X63928571Y-68042619D01*
X63166667Y-98522619D02*
X63785714Y-98522619D01*
X63785714Y-98522619D02*
X63452381Y-98903571D01*
X63452381Y-98903571D02*
X63595238Y-98903571D01*
X63595238Y-98903571D02*
X63690476Y-98951190D01*
X63690476Y-98951190D02*
X63738095Y-98998809D01*
X63738095Y-98998809D02*
X63785714Y-99094047D01*
X63785714Y-99094047D02*
X63785714Y-99332142D01*
X63785714Y-99332142D02*
X63738095Y-99427380D01*
X63738095Y-99427380D02*
X63690476Y-99475000D01*
X63690476Y-99475000D02*
X63595238Y-99522619D01*
X63595238Y-99522619D02*
X63309524Y-99522619D01*
X63309524Y-99522619D02*
X63214286Y-99475000D01*
X63214286Y-99475000D02*
X63166667Y-99427380D01*
X58039048Y-81361666D02*
X58800953Y-81361666D01*
X45339048Y-104221666D02*
X46100953Y-104221666D01*
X45720000Y-104602619D02*
X45720000Y-103840714D01*
X88519048Y-25481666D02*
X89280953Y-25481666D01*
X88900000Y-25862619D02*
X88900000Y-25100714D01*
X78359048Y-99141666D02*
X79120953Y-99141666D01*
X78740000Y-99522619D02*
X78740000Y-98760714D01*
X90154286Y-57882619D02*
X90725714Y-57882619D01*
X90440000Y-58882619D02*
X90440000Y-57882619D01*
X90963810Y-57882619D02*
X91630476Y-58882619D01*
X91630476Y-57882619D02*
X90963810Y-58882619D01*
X92201905Y-57882619D02*
X92392381Y-57882619D01*
X92392381Y-57882619D02*
X92487619Y-57930238D01*
X92487619Y-57930238D02*
X92582857Y-58025476D01*
X92582857Y-58025476D02*
X92630476Y-58215952D01*
X92630476Y-58215952D02*
X92630476Y-58549285D01*
X92630476Y-58549285D02*
X92582857Y-58739761D01*
X92582857Y-58739761D02*
X92487619Y-58835000D01*
X92487619Y-58835000D02*
X92392381Y-58882619D01*
X92392381Y-58882619D02*
X92201905Y-58882619D01*
X92201905Y-58882619D02*
X92106667Y-58835000D01*
X92106667Y-58835000D02*
X92011429Y-58739761D01*
X92011429Y-58739761D02*
X91963810Y-58549285D01*
X91963810Y-58549285D02*
X91963810Y-58215952D01*
X91963810Y-58215952D02*
X92011429Y-58025476D01*
X92011429Y-58025476D02*
X92106667Y-57930238D01*
X92106667Y-57930238D02*
X92201905Y-57882619D01*
X87638095Y-89315000D02*
X87780952Y-89362619D01*
X87780952Y-89362619D02*
X88019047Y-89362619D01*
X88019047Y-89362619D02*
X88114285Y-89315000D01*
X88114285Y-89315000D02*
X88161904Y-89267380D01*
X88161904Y-89267380D02*
X88209523Y-89172142D01*
X88209523Y-89172142D02*
X88209523Y-89076904D01*
X88209523Y-89076904D02*
X88161904Y-88981666D01*
X88161904Y-88981666D02*
X88114285Y-88934047D01*
X88114285Y-88934047D02*
X88019047Y-88886428D01*
X88019047Y-88886428D02*
X87828571Y-88838809D01*
X87828571Y-88838809D02*
X87733333Y-88791190D01*
X87733333Y-88791190D02*
X87685714Y-88743571D01*
X87685714Y-88743571D02*
X87638095Y-88648333D01*
X87638095Y-88648333D02*
X87638095Y-88553095D01*
X87638095Y-88553095D02*
X87685714Y-88457857D01*
X87685714Y-88457857D02*
X87733333Y-88410238D01*
X87733333Y-88410238D02*
X87828571Y-88362619D01*
X87828571Y-88362619D02*
X88066666Y-88362619D01*
X88066666Y-88362619D02*
X88209523Y-88410238D01*
X89209523Y-89267380D02*
X89161904Y-89315000D01*
X89161904Y-89315000D02*
X89019047Y-89362619D01*
X89019047Y-89362619D02*
X88923809Y-89362619D01*
X88923809Y-89362619D02*
X88780952Y-89315000D01*
X88780952Y-89315000D02*
X88685714Y-89219761D01*
X88685714Y-89219761D02*
X88638095Y-89124523D01*
X88638095Y-89124523D02*
X88590476Y-88934047D01*
X88590476Y-88934047D02*
X88590476Y-88791190D01*
X88590476Y-88791190D02*
X88638095Y-88600714D01*
X88638095Y-88600714D02*
X88685714Y-88505476D01*
X88685714Y-88505476D02*
X88780952Y-88410238D01*
X88780952Y-88410238D02*
X88923809Y-88362619D01*
X88923809Y-88362619D02*
X89019047Y-88362619D01*
X89019047Y-88362619D02*
X89161904Y-88410238D01*
X89161904Y-88410238D02*
X89209523Y-88457857D01*
X90161904Y-89362619D02*
X89590476Y-89362619D01*
X89876190Y-89362619D02*
X89876190Y-88362619D01*
X89876190Y-88362619D02*
X89780952Y-88505476D01*
X89780952Y-88505476D02*
X89685714Y-88600714D01*
X89685714Y-88600714D02*
X89590476Y-88648333D01*
X101538809Y-62991428D02*
X101586428Y-62848571D01*
X101586428Y-62848571D02*
X101634047Y-62800952D01*
X101634047Y-62800952D02*
X101729285Y-62753333D01*
X101729285Y-62753333D02*
X101872142Y-62753333D01*
X101872142Y-62753333D02*
X101967380Y-62800952D01*
X101967380Y-62800952D02*
X102015000Y-62848571D01*
X102015000Y-62848571D02*
X102062619Y-62943809D01*
X102062619Y-62943809D02*
X102062619Y-63324761D01*
X102062619Y-63324761D02*
X101062619Y-63324761D01*
X101062619Y-63324761D02*
X101062619Y-62991428D01*
X101062619Y-62991428D02*
X101110238Y-62896190D01*
X101110238Y-62896190D02*
X101157857Y-62848571D01*
X101157857Y-62848571D02*
X101253095Y-62800952D01*
X101253095Y-62800952D02*
X101348333Y-62800952D01*
X101348333Y-62800952D02*
X101443571Y-62848571D01*
X101443571Y-62848571D02*
X101491190Y-62896190D01*
X101491190Y-62896190D02*
X101538809Y-62991428D01*
X101538809Y-62991428D02*
X101538809Y-63324761D01*
X101395952Y-62419999D02*
X102062619Y-62181904D01*
X101395952Y-61943809D02*
X102062619Y-62181904D01*
X102062619Y-62181904D02*
X102300714Y-62277142D01*
X102300714Y-62277142D02*
X102348333Y-62324761D01*
X102348333Y-62324761D02*
X102395952Y-62419999D01*
X101395952Y-60943808D02*
X101395952Y-60562856D01*
X101062619Y-60800951D02*
X101919761Y-60800951D01*
X101919761Y-60800951D02*
X102015000Y-60753332D01*
X102015000Y-60753332D02*
X102062619Y-60658094D01*
X102062619Y-60658094D02*
X102062619Y-60562856D01*
X102015000Y-59848570D02*
X102062619Y-59943808D01*
X102062619Y-59943808D02*
X102062619Y-60134284D01*
X102062619Y-60134284D02*
X102015000Y-60229522D01*
X102015000Y-60229522D02*
X101919761Y-60277141D01*
X101919761Y-60277141D02*
X101538809Y-60277141D01*
X101538809Y-60277141D02*
X101443571Y-60229522D01*
X101443571Y-60229522D02*
X101395952Y-60134284D01*
X101395952Y-60134284D02*
X101395952Y-59943808D01*
X101395952Y-59943808D02*
X101443571Y-59848570D01*
X101443571Y-59848570D02*
X101538809Y-59800951D01*
X101538809Y-59800951D02*
X101634047Y-59800951D01*
X101634047Y-59800951D02*
X101729285Y-60277141D01*
X102062619Y-59372379D02*
X101395952Y-59372379D01*
X101491190Y-59372379D02*
X101443571Y-59324760D01*
X101443571Y-59324760D02*
X101395952Y-59229522D01*
X101395952Y-59229522D02*
X101395952Y-59086665D01*
X101395952Y-59086665D02*
X101443571Y-58991427D01*
X101443571Y-58991427D02*
X101538809Y-58943808D01*
X101538809Y-58943808D02*
X102062619Y-58943808D01*
X101538809Y-58943808D02*
X101443571Y-58896189D01*
X101443571Y-58896189D02*
X101395952Y-58800951D01*
X101395952Y-58800951D02*
X101395952Y-58658094D01*
X101395952Y-58658094D02*
X101443571Y-58562855D01*
X101443571Y-58562855D02*
X101538809Y-58515236D01*
X101538809Y-58515236D02*
X102062619Y-58515236D01*
X102062619Y-57896189D02*
X102015000Y-57991427D01*
X102015000Y-57991427D02*
X101967380Y-58039046D01*
X101967380Y-58039046D02*
X101872142Y-58086665D01*
X101872142Y-58086665D02*
X101586428Y-58086665D01*
X101586428Y-58086665D02*
X101491190Y-58039046D01*
X101491190Y-58039046D02*
X101443571Y-57991427D01*
X101443571Y-57991427D02*
X101395952Y-57896189D01*
X101395952Y-57896189D02*
X101395952Y-57753332D01*
X101395952Y-57753332D02*
X101443571Y-57658094D01*
X101443571Y-57658094D02*
X101491190Y-57610475D01*
X101491190Y-57610475D02*
X101586428Y-57562856D01*
X101586428Y-57562856D02*
X101872142Y-57562856D01*
X101872142Y-57562856D02*
X101967380Y-57610475D01*
X101967380Y-57610475D02*
X102015000Y-57658094D01*
X102015000Y-57658094D02*
X102062619Y-57753332D01*
X102062619Y-57753332D02*
X102062619Y-57896189D01*
X101681666Y-57134284D02*
X101681666Y-56372380D01*
X102062619Y-55372380D02*
X102062619Y-55943808D01*
X102062619Y-55658094D02*
X101062619Y-55658094D01*
X101062619Y-55658094D02*
X101205476Y-55753332D01*
X101205476Y-55753332D02*
X101300714Y-55848570D01*
X101300714Y-55848570D02*
X101348333Y-55943808D01*
X101157857Y-54991427D02*
X101110238Y-54943808D01*
X101110238Y-54943808D02*
X101062619Y-54848570D01*
X101062619Y-54848570D02*
X101062619Y-54610475D01*
X101062619Y-54610475D02*
X101110238Y-54515237D01*
X101110238Y-54515237D02*
X101157857Y-54467618D01*
X101157857Y-54467618D02*
X101253095Y-54419999D01*
X101253095Y-54419999D02*
X101348333Y-54419999D01*
X101348333Y-54419999D02*
X101491190Y-54467618D01*
X101491190Y-54467618D02*
X102062619Y-55039046D01*
X102062619Y-55039046D02*
X102062619Y-54419999D01*
X101062619Y-54086665D02*
X101062619Y-53467618D01*
X101062619Y-53467618D02*
X101443571Y-53800951D01*
X101443571Y-53800951D02*
X101443571Y-53658094D01*
X101443571Y-53658094D02*
X101491190Y-53562856D01*
X101491190Y-53562856D02*
X101538809Y-53515237D01*
X101538809Y-53515237D02*
X101634047Y-53467618D01*
X101634047Y-53467618D02*
X101872142Y-53467618D01*
X101872142Y-53467618D02*
X101967380Y-53515237D01*
X101967380Y-53515237D02*
X102015000Y-53562856D01*
X102015000Y-53562856D02*
X102062619Y-53658094D01*
X102062619Y-53658094D02*
X102062619Y-53943808D01*
X102062619Y-53943808D02*
X102015000Y-54039046D01*
X102015000Y-54039046D02*
X101967380Y-54086665D01*
X64944762Y-88362619D02*
X65278095Y-89362619D01*
X65278095Y-89362619D02*
X65611428Y-88362619D01*
X65944762Y-89362619D02*
X65944762Y-88362619D01*
X66420952Y-89362619D02*
X66420952Y-88362619D01*
X66420952Y-88362619D02*
X66992380Y-89362619D01*
X66992380Y-89362619D02*
X66992380Y-88362619D01*
X50881666Y-112140951D02*
X50881666Y-111379047D01*
X66755238Y-43642619D02*
X66755238Y-42642619D01*
X66755238Y-42642619D02*
X67088571Y-43356904D01*
X67088571Y-43356904D02*
X67421904Y-42642619D01*
X67421904Y-42642619D02*
X67421904Y-43642619D01*
X67898095Y-43642619D02*
X67898095Y-42642619D01*
X67898095Y-43118809D02*
X68469523Y-43118809D01*
X68469523Y-43642619D02*
X68469523Y-42642619D01*
X68945714Y-43261666D02*
X69707619Y-43261666D01*
X70136190Y-43595000D02*
X70279047Y-43642619D01*
X70279047Y-43642619D02*
X70517142Y-43642619D01*
X70517142Y-43642619D02*
X70612380Y-43595000D01*
X70612380Y-43595000D02*
X70659999Y-43547380D01*
X70659999Y-43547380D02*
X70707618Y-43452142D01*
X70707618Y-43452142D02*
X70707618Y-43356904D01*
X70707618Y-43356904D02*
X70659999Y-43261666D01*
X70659999Y-43261666D02*
X70612380Y-43214047D01*
X70612380Y-43214047D02*
X70517142Y-43166428D01*
X70517142Y-43166428D02*
X70326666Y-43118809D01*
X70326666Y-43118809D02*
X70231428Y-43071190D01*
X70231428Y-43071190D02*
X70183809Y-43023571D01*
X70183809Y-43023571D02*
X70136190Y-42928333D01*
X70136190Y-42928333D02*
X70136190Y-42833095D01*
X70136190Y-42833095D02*
X70183809Y-42737857D01*
X70183809Y-42737857D02*
X70231428Y-42690238D01*
X70231428Y-42690238D02*
X70326666Y-42642619D01*
X70326666Y-42642619D02*
X70564761Y-42642619D01*
X70564761Y-42642619D02*
X70707618Y-42690238D01*
X71517142Y-43595000D02*
X71421904Y-43642619D01*
X71421904Y-43642619D02*
X71231428Y-43642619D01*
X71231428Y-43642619D02*
X71136190Y-43595000D01*
X71136190Y-43595000D02*
X71088571Y-43499761D01*
X71088571Y-43499761D02*
X71088571Y-43118809D01*
X71088571Y-43118809D02*
X71136190Y-43023571D01*
X71136190Y-43023571D02*
X71231428Y-42975952D01*
X71231428Y-42975952D02*
X71421904Y-42975952D01*
X71421904Y-42975952D02*
X71517142Y-43023571D01*
X71517142Y-43023571D02*
X71564761Y-43118809D01*
X71564761Y-43118809D02*
X71564761Y-43214047D01*
X71564761Y-43214047D02*
X71088571Y-43309285D01*
X71993333Y-42975952D02*
X71993333Y-43642619D01*
X71993333Y-43071190D02*
X72040952Y-43023571D01*
X72040952Y-43023571D02*
X72136190Y-42975952D01*
X72136190Y-42975952D02*
X72279047Y-42975952D01*
X72279047Y-42975952D02*
X72374285Y-43023571D01*
X72374285Y-43023571D02*
X72421904Y-43118809D01*
X72421904Y-43118809D02*
X72421904Y-43642619D01*
X72850476Y-43595000D02*
X72945714Y-43642619D01*
X72945714Y-43642619D02*
X73136190Y-43642619D01*
X73136190Y-43642619D02*
X73231428Y-43595000D01*
X73231428Y-43595000D02*
X73279047Y-43499761D01*
X73279047Y-43499761D02*
X73279047Y-43452142D01*
X73279047Y-43452142D02*
X73231428Y-43356904D01*
X73231428Y-43356904D02*
X73136190Y-43309285D01*
X73136190Y-43309285D02*
X72993333Y-43309285D01*
X72993333Y-43309285D02*
X72898095Y-43261666D01*
X72898095Y-43261666D02*
X72850476Y-43166428D01*
X72850476Y-43166428D02*
X72850476Y-43118809D01*
X72850476Y-43118809D02*
X72898095Y-43023571D01*
X72898095Y-43023571D02*
X72993333Y-42975952D01*
X72993333Y-42975952D02*
X73136190Y-42975952D01*
X73136190Y-42975952D02*
X73231428Y-43023571D01*
X73850476Y-43642619D02*
X73755238Y-43595000D01*
X73755238Y-43595000D02*
X73707619Y-43547380D01*
X73707619Y-43547380D02*
X73660000Y-43452142D01*
X73660000Y-43452142D02*
X73660000Y-43166428D01*
X73660000Y-43166428D02*
X73707619Y-43071190D01*
X73707619Y-43071190D02*
X73755238Y-43023571D01*
X73755238Y-43023571D02*
X73850476Y-42975952D01*
X73850476Y-42975952D02*
X73993333Y-42975952D01*
X73993333Y-42975952D02*
X74088571Y-43023571D01*
X74088571Y-43023571D02*
X74136190Y-43071190D01*
X74136190Y-43071190D02*
X74183809Y-43166428D01*
X74183809Y-43166428D02*
X74183809Y-43452142D01*
X74183809Y-43452142D02*
X74136190Y-43547380D01*
X74136190Y-43547380D02*
X74088571Y-43595000D01*
X74088571Y-43595000D02*
X73993333Y-43642619D01*
X73993333Y-43642619D02*
X73850476Y-43642619D01*
X74612381Y-43642619D02*
X74612381Y-42975952D01*
X74612381Y-43166428D02*
X74660000Y-43071190D01*
X74660000Y-43071190D02*
X74707619Y-43023571D01*
X74707619Y-43023571D02*
X74802857Y-42975952D01*
X74802857Y-42975952D02*
X74898095Y-42975952D01*
X75231429Y-43261666D02*
X75993334Y-43261666D01*
X76421905Y-43595000D02*
X76564762Y-43642619D01*
X76564762Y-43642619D02*
X76802857Y-43642619D01*
X76802857Y-43642619D02*
X76898095Y-43595000D01*
X76898095Y-43595000D02*
X76945714Y-43547380D01*
X76945714Y-43547380D02*
X76993333Y-43452142D01*
X76993333Y-43452142D02*
X76993333Y-43356904D01*
X76993333Y-43356904D02*
X76945714Y-43261666D01*
X76945714Y-43261666D02*
X76898095Y-43214047D01*
X76898095Y-43214047D02*
X76802857Y-43166428D01*
X76802857Y-43166428D02*
X76612381Y-43118809D01*
X76612381Y-43118809D02*
X76517143Y-43071190D01*
X76517143Y-43071190D02*
X76469524Y-43023571D01*
X76469524Y-43023571D02*
X76421905Y-42928333D01*
X76421905Y-42928333D02*
X76421905Y-42833095D01*
X76421905Y-42833095D02*
X76469524Y-42737857D01*
X76469524Y-42737857D02*
X76517143Y-42690238D01*
X76517143Y-42690238D02*
X76612381Y-42642619D01*
X76612381Y-42642619D02*
X76850476Y-42642619D01*
X76850476Y-42642619D02*
X76993333Y-42690238D01*
X77802857Y-43595000D02*
X77707619Y-43642619D01*
X77707619Y-43642619D02*
X77517143Y-43642619D01*
X77517143Y-43642619D02*
X77421905Y-43595000D01*
X77421905Y-43595000D02*
X77374286Y-43499761D01*
X77374286Y-43499761D02*
X77374286Y-43118809D01*
X77374286Y-43118809D02*
X77421905Y-43023571D01*
X77421905Y-43023571D02*
X77517143Y-42975952D01*
X77517143Y-42975952D02*
X77707619Y-42975952D01*
X77707619Y-42975952D02*
X77802857Y-43023571D01*
X77802857Y-43023571D02*
X77850476Y-43118809D01*
X77850476Y-43118809D02*
X77850476Y-43214047D01*
X77850476Y-43214047D02*
X77374286Y-43309285D01*
X78279048Y-43642619D02*
X78279048Y-42975952D01*
X78279048Y-43166428D02*
X78326667Y-43071190D01*
X78326667Y-43071190D02*
X78374286Y-43023571D01*
X78374286Y-43023571D02*
X78469524Y-42975952D01*
X78469524Y-42975952D02*
X78564762Y-42975952D01*
X78898096Y-43642619D02*
X78898096Y-42975952D01*
X78898096Y-42642619D02*
X78850477Y-42690238D01*
X78850477Y-42690238D02*
X78898096Y-42737857D01*
X78898096Y-42737857D02*
X78945715Y-42690238D01*
X78945715Y-42690238D02*
X78898096Y-42642619D01*
X78898096Y-42642619D02*
X78898096Y-42737857D01*
X79755238Y-43595000D02*
X79660000Y-43642619D01*
X79660000Y-43642619D02*
X79469524Y-43642619D01*
X79469524Y-43642619D02*
X79374286Y-43595000D01*
X79374286Y-43595000D02*
X79326667Y-43499761D01*
X79326667Y-43499761D02*
X79326667Y-43118809D01*
X79326667Y-43118809D02*
X79374286Y-43023571D01*
X79374286Y-43023571D02*
X79469524Y-42975952D01*
X79469524Y-42975952D02*
X79660000Y-42975952D01*
X79660000Y-42975952D02*
X79755238Y-43023571D01*
X79755238Y-43023571D02*
X79802857Y-43118809D01*
X79802857Y-43118809D02*
X79802857Y-43214047D01*
X79802857Y-43214047D02*
X79326667Y-43309285D01*
X80183810Y-43595000D02*
X80279048Y-43642619D01*
X80279048Y-43642619D02*
X80469524Y-43642619D01*
X80469524Y-43642619D02*
X80564762Y-43595000D01*
X80564762Y-43595000D02*
X80612381Y-43499761D01*
X80612381Y-43499761D02*
X80612381Y-43452142D01*
X80612381Y-43452142D02*
X80564762Y-43356904D01*
X80564762Y-43356904D02*
X80469524Y-43309285D01*
X80469524Y-43309285D02*
X80326667Y-43309285D01*
X80326667Y-43309285D02*
X80231429Y-43261666D01*
X80231429Y-43261666D02*
X80183810Y-43166428D01*
X80183810Y-43166428D02*
X80183810Y-43118809D01*
X80183810Y-43118809D02*
X80231429Y-43023571D01*
X80231429Y-43023571D02*
X80326667Y-42975952D01*
X80326667Y-42975952D02*
X80469524Y-42975952D01*
X80469524Y-42975952D02*
X80564762Y-43023571D01*
%TO.C,*%
%TO.C,Power*%
X44822619Y-108656190D02*
X43822619Y-108656190D01*
X43822619Y-108656190D02*
X43822619Y-108275238D01*
X43822619Y-108275238D02*
X43870238Y-108180000D01*
X43870238Y-108180000D02*
X43917857Y-108132381D01*
X43917857Y-108132381D02*
X44013095Y-108084762D01*
X44013095Y-108084762D02*
X44155952Y-108084762D01*
X44155952Y-108084762D02*
X44251190Y-108132381D01*
X44251190Y-108132381D02*
X44298809Y-108180000D01*
X44298809Y-108180000D02*
X44346428Y-108275238D01*
X44346428Y-108275238D02*
X44346428Y-108656190D01*
X44822619Y-107513333D02*
X44775000Y-107608571D01*
X44775000Y-107608571D02*
X44727380Y-107656190D01*
X44727380Y-107656190D02*
X44632142Y-107703809D01*
X44632142Y-107703809D02*
X44346428Y-107703809D01*
X44346428Y-107703809D02*
X44251190Y-107656190D01*
X44251190Y-107656190D02*
X44203571Y-107608571D01*
X44203571Y-107608571D02*
X44155952Y-107513333D01*
X44155952Y-107513333D02*
X44155952Y-107370476D01*
X44155952Y-107370476D02*
X44203571Y-107275238D01*
X44203571Y-107275238D02*
X44251190Y-107227619D01*
X44251190Y-107227619D02*
X44346428Y-107180000D01*
X44346428Y-107180000D02*
X44632142Y-107180000D01*
X44632142Y-107180000D02*
X44727380Y-107227619D01*
X44727380Y-107227619D02*
X44775000Y-107275238D01*
X44775000Y-107275238D02*
X44822619Y-107370476D01*
X44822619Y-107370476D02*
X44822619Y-107513333D01*
X44155952Y-106846666D02*
X44822619Y-106656190D01*
X44822619Y-106656190D02*
X44346428Y-106465714D01*
X44346428Y-106465714D02*
X44822619Y-106275238D01*
X44822619Y-106275238D02*
X44155952Y-106084762D01*
X44775000Y-105322857D02*
X44822619Y-105418095D01*
X44822619Y-105418095D02*
X44822619Y-105608571D01*
X44822619Y-105608571D02*
X44775000Y-105703809D01*
X44775000Y-105703809D02*
X44679761Y-105751428D01*
X44679761Y-105751428D02*
X44298809Y-105751428D01*
X44298809Y-105751428D02*
X44203571Y-105703809D01*
X44203571Y-105703809D02*
X44155952Y-105608571D01*
X44155952Y-105608571D02*
X44155952Y-105418095D01*
X44155952Y-105418095D02*
X44203571Y-105322857D01*
X44203571Y-105322857D02*
X44298809Y-105275238D01*
X44298809Y-105275238D02*
X44394047Y-105275238D01*
X44394047Y-105275238D02*
X44489285Y-105751428D01*
X44822619Y-104846666D02*
X44155952Y-104846666D01*
X44346428Y-104846666D02*
X44251190Y-104799047D01*
X44251190Y-104799047D02*
X44203571Y-104751428D01*
X44203571Y-104751428D02*
X44155952Y-104656190D01*
X44155952Y-104656190D02*
X44155952Y-104560952D01*
%TO.C,*%
%TO.C,Rele*%
X37290475Y-54012619D02*
X36957142Y-53536428D01*
X36719047Y-54012619D02*
X36719047Y-53012619D01*
X36719047Y-53012619D02*
X37099999Y-53012619D01*
X37099999Y-53012619D02*
X37195237Y-53060238D01*
X37195237Y-53060238D02*
X37242856Y-53107857D01*
X37242856Y-53107857D02*
X37290475Y-53203095D01*
X37290475Y-53203095D02*
X37290475Y-53345952D01*
X37290475Y-53345952D02*
X37242856Y-53441190D01*
X37242856Y-53441190D02*
X37195237Y-53488809D01*
X37195237Y-53488809D02*
X37099999Y-53536428D01*
X37099999Y-53536428D02*
X36719047Y-53536428D01*
X38099999Y-53965000D02*
X38004761Y-54012619D01*
X38004761Y-54012619D02*
X37814285Y-54012619D01*
X37814285Y-54012619D02*
X37719047Y-53965000D01*
X37719047Y-53965000D02*
X37671428Y-53869761D01*
X37671428Y-53869761D02*
X37671428Y-53488809D01*
X37671428Y-53488809D02*
X37719047Y-53393571D01*
X37719047Y-53393571D02*
X37814285Y-53345952D01*
X37814285Y-53345952D02*
X38004761Y-53345952D01*
X38004761Y-53345952D02*
X38099999Y-53393571D01*
X38099999Y-53393571D02*
X38147618Y-53488809D01*
X38147618Y-53488809D02*
X38147618Y-53584047D01*
X38147618Y-53584047D02*
X37671428Y-53679285D01*
X38719047Y-54012619D02*
X38623809Y-53965000D01*
X38623809Y-53965000D02*
X38576190Y-53869761D01*
X38576190Y-53869761D02*
X38576190Y-53012619D01*
X39480952Y-53965000D02*
X39385714Y-54012619D01*
X39385714Y-54012619D02*
X39195238Y-54012619D01*
X39195238Y-54012619D02*
X39100000Y-53965000D01*
X39100000Y-53965000D02*
X39052381Y-53869761D01*
X39052381Y-53869761D02*
X39052381Y-53488809D01*
X39052381Y-53488809D02*
X39100000Y-53393571D01*
X39100000Y-53393571D02*
X39195238Y-53345952D01*
X39195238Y-53345952D02*
X39385714Y-53345952D01*
X39385714Y-53345952D02*
X39480952Y-53393571D01*
X39480952Y-53393571D02*
X39528571Y-53488809D01*
X39528571Y-53488809D02*
X39528571Y-53584047D01*
X39528571Y-53584047D02*
X39052381Y-53679285D01*
%TO.C,*%
%TO.C,Sensors*%
X44470000Y-38298095D02*
X44517619Y-38155238D01*
X44517619Y-38155238D02*
X44517619Y-37917143D01*
X44517619Y-37917143D02*
X44470000Y-37821905D01*
X44470000Y-37821905D02*
X44422380Y-37774286D01*
X44422380Y-37774286D02*
X44327142Y-37726667D01*
X44327142Y-37726667D02*
X44231904Y-37726667D01*
X44231904Y-37726667D02*
X44136666Y-37774286D01*
X44136666Y-37774286D02*
X44089047Y-37821905D01*
X44089047Y-37821905D02*
X44041428Y-37917143D01*
X44041428Y-37917143D02*
X43993809Y-38107619D01*
X43993809Y-38107619D02*
X43946190Y-38202857D01*
X43946190Y-38202857D02*
X43898571Y-38250476D01*
X43898571Y-38250476D02*
X43803333Y-38298095D01*
X43803333Y-38298095D02*
X43708095Y-38298095D01*
X43708095Y-38298095D02*
X43612857Y-38250476D01*
X43612857Y-38250476D02*
X43565238Y-38202857D01*
X43565238Y-38202857D02*
X43517619Y-38107619D01*
X43517619Y-38107619D02*
X43517619Y-37869524D01*
X43517619Y-37869524D02*
X43565238Y-37726667D01*
X44470000Y-36917143D02*
X44517619Y-37012381D01*
X44517619Y-37012381D02*
X44517619Y-37202857D01*
X44517619Y-37202857D02*
X44470000Y-37298095D01*
X44470000Y-37298095D02*
X44374761Y-37345714D01*
X44374761Y-37345714D02*
X43993809Y-37345714D01*
X43993809Y-37345714D02*
X43898571Y-37298095D01*
X43898571Y-37298095D02*
X43850952Y-37202857D01*
X43850952Y-37202857D02*
X43850952Y-37012381D01*
X43850952Y-37012381D02*
X43898571Y-36917143D01*
X43898571Y-36917143D02*
X43993809Y-36869524D01*
X43993809Y-36869524D02*
X44089047Y-36869524D01*
X44089047Y-36869524D02*
X44184285Y-37345714D01*
X43850952Y-36440952D02*
X44517619Y-36440952D01*
X43946190Y-36440952D02*
X43898571Y-36393333D01*
X43898571Y-36393333D02*
X43850952Y-36298095D01*
X43850952Y-36298095D02*
X43850952Y-36155238D01*
X43850952Y-36155238D02*
X43898571Y-36060000D01*
X43898571Y-36060000D02*
X43993809Y-36012381D01*
X43993809Y-36012381D02*
X44517619Y-36012381D01*
X44470000Y-35583809D02*
X44517619Y-35488571D01*
X44517619Y-35488571D02*
X44517619Y-35298095D01*
X44517619Y-35298095D02*
X44470000Y-35202857D01*
X44470000Y-35202857D02*
X44374761Y-35155238D01*
X44374761Y-35155238D02*
X44327142Y-35155238D01*
X44327142Y-35155238D02*
X44231904Y-35202857D01*
X44231904Y-35202857D02*
X44184285Y-35298095D01*
X44184285Y-35298095D02*
X44184285Y-35440952D01*
X44184285Y-35440952D02*
X44136666Y-35536190D01*
X44136666Y-35536190D02*
X44041428Y-35583809D01*
X44041428Y-35583809D02*
X43993809Y-35583809D01*
X43993809Y-35583809D02*
X43898571Y-35536190D01*
X43898571Y-35536190D02*
X43850952Y-35440952D01*
X43850952Y-35440952D02*
X43850952Y-35298095D01*
X43850952Y-35298095D02*
X43898571Y-35202857D01*
X44517619Y-34583809D02*
X44470000Y-34679047D01*
X44470000Y-34679047D02*
X44422380Y-34726666D01*
X44422380Y-34726666D02*
X44327142Y-34774285D01*
X44327142Y-34774285D02*
X44041428Y-34774285D01*
X44041428Y-34774285D02*
X43946190Y-34726666D01*
X43946190Y-34726666D02*
X43898571Y-34679047D01*
X43898571Y-34679047D02*
X43850952Y-34583809D01*
X43850952Y-34583809D02*
X43850952Y-34440952D01*
X43850952Y-34440952D02*
X43898571Y-34345714D01*
X43898571Y-34345714D02*
X43946190Y-34298095D01*
X43946190Y-34298095D02*
X44041428Y-34250476D01*
X44041428Y-34250476D02*
X44327142Y-34250476D01*
X44327142Y-34250476D02*
X44422380Y-34298095D01*
X44422380Y-34298095D02*
X44470000Y-34345714D01*
X44470000Y-34345714D02*
X44517619Y-34440952D01*
X44517619Y-34440952D02*
X44517619Y-34583809D01*
X44517619Y-33821904D02*
X43850952Y-33821904D01*
X44041428Y-33821904D02*
X43946190Y-33774285D01*
X43946190Y-33774285D02*
X43898571Y-33726666D01*
X43898571Y-33726666D02*
X43850952Y-33631428D01*
X43850952Y-33631428D02*
X43850952Y-33536190D01*
X44470000Y-33250475D02*
X44517619Y-33155237D01*
X44517619Y-33155237D02*
X44517619Y-32964761D01*
X44517619Y-32964761D02*
X44470000Y-32869523D01*
X44470000Y-32869523D02*
X44374761Y-32821904D01*
X44374761Y-32821904D02*
X44327142Y-32821904D01*
X44327142Y-32821904D02*
X44231904Y-32869523D01*
X44231904Y-32869523D02*
X44184285Y-32964761D01*
X44184285Y-32964761D02*
X44184285Y-33107618D01*
X44184285Y-33107618D02*
X44136666Y-33202856D01*
X44136666Y-33202856D02*
X44041428Y-33250475D01*
X44041428Y-33250475D02*
X43993809Y-33250475D01*
X43993809Y-33250475D02*
X43898571Y-33202856D01*
X43898571Y-33202856D02*
X43850952Y-33107618D01*
X43850952Y-33107618D02*
X43850952Y-32964761D01*
X43850952Y-32964761D02*
X43898571Y-32869523D01*
%TO.C,*%
%TO.C,BMP 180 Outside*%
X55818809Y-97416190D02*
X55866428Y-97273333D01*
X55866428Y-97273333D02*
X55914047Y-97225714D01*
X55914047Y-97225714D02*
X56009285Y-97178095D01*
X56009285Y-97178095D02*
X56152142Y-97178095D01*
X56152142Y-97178095D02*
X56247380Y-97225714D01*
X56247380Y-97225714D02*
X56295000Y-97273333D01*
X56295000Y-97273333D02*
X56342619Y-97368571D01*
X56342619Y-97368571D02*
X56342619Y-97749523D01*
X56342619Y-97749523D02*
X55342619Y-97749523D01*
X55342619Y-97749523D02*
X55342619Y-97416190D01*
X55342619Y-97416190D02*
X55390238Y-97320952D01*
X55390238Y-97320952D02*
X55437857Y-97273333D01*
X55437857Y-97273333D02*
X55533095Y-97225714D01*
X55533095Y-97225714D02*
X55628333Y-97225714D01*
X55628333Y-97225714D02*
X55723571Y-97273333D01*
X55723571Y-97273333D02*
X55771190Y-97320952D01*
X55771190Y-97320952D02*
X55818809Y-97416190D01*
X55818809Y-97416190D02*
X55818809Y-97749523D01*
X56342619Y-96749523D02*
X55342619Y-96749523D01*
X55342619Y-96749523D02*
X56056904Y-96416190D01*
X56056904Y-96416190D02*
X55342619Y-96082857D01*
X55342619Y-96082857D02*
X56342619Y-96082857D01*
X56342619Y-95606666D02*
X55342619Y-95606666D01*
X55342619Y-95606666D02*
X55342619Y-95225714D01*
X55342619Y-95225714D02*
X55390238Y-95130476D01*
X55390238Y-95130476D02*
X55437857Y-95082857D01*
X55437857Y-95082857D02*
X55533095Y-95035238D01*
X55533095Y-95035238D02*
X55675952Y-95035238D01*
X55675952Y-95035238D02*
X55771190Y-95082857D01*
X55771190Y-95082857D02*
X55818809Y-95130476D01*
X55818809Y-95130476D02*
X55866428Y-95225714D01*
X55866428Y-95225714D02*
X55866428Y-95606666D01*
X56342619Y-93320952D02*
X56342619Y-93892380D01*
X56342619Y-93606666D02*
X55342619Y-93606666D01*
X55342619Y-93606666D02*
X55485476Y-93701904D01*
X55485476Y-93701904D02*
X55580714Y-93797142D01*
X55580714Y-93797142D02*
X55628333Y-93892380D01*
X55771190Y-92749523D02*
X55723571Y-92844761D01*
X55723571Y-92844761D02*
X55675952Y-92892380D01*
X55675952Y-92892380D02*
X55580714Y-92939999D01*
X55580714Y-92939999D02*
X55533095Y-92939999D01*
X55533095Y-92939999D02*
X55437857Y-92892380D01*
X55437857Y-92892380D02*
X55390238Y-92844761D01*
X55390238Y-92844761D02*
X55342619Y-92749523D01*
X55342619Y-92749523D02*
X55342619Y-92559047D01*
X55342619Y-92559047D02*
X55390238Y-92463809D01*
X55390238Y-92463809D02*
X55437857Y-92416190D01*
X55437857Y-92416190D02*
X55533095Y-92368571D01*
X55533095Y-92368571D02*
X55580714Y-92368571D01*
X55580714Y-92368571D02*
X55675952Y-92416190D01*
X55675952Y-92416190D02*
X55723571Y-92463809D01*
X55723571Y-92463809D02*
X55771190Y-92559047D01*
X55771190Y-92559047D02*
X55771190Y-92749523D01*
X55771190Y-92749523D02*
X55818809Y-92844761D01*
X55818809Y-92844761D02*
X55866428Y-92892380D01*
X55866428Y-92892380D02*
X55961666Y-92939999D01*
X55961666Y-92939999D02*
X56152142Y-92939999D01*
X56152142Y-92939999D02*
X56247380Y-92892380D01*
X56247380Y-92892380D02*
X56295000Y-92844761D01*
X56295000Y-92844761D02*
X56342619Y-92749523D01*
X56342619Y-92749523D02*
X56342619Y-92559047D01*
X56342619Y-92559047D02*
X56295000Y-92463809D01*
X56295000Y-92463809D02*
X56247380Y-92416190D01*
X56247380Y-92416190D02*
X56152142Y-92368571D01*
X56152142Y-92368571D02*
X55961666Y-92368571D01*
X55961666Y-92368571D02*
X55866428Y-92416190D01*
X55866428Y-92416190D02*
X55818809Y-92463809D01*
X55818809Y-92463809D02*
X55771190Y-92559047D01*
X55342619Y-91749523D02*
X55342619Y-91654285D01*
X55342619Y-91654285D02*
X55390238Y-91559047D01*
X55390238Y-91559047D02*
X55437857Y-91511428D01*
X55437857Y-91511428D02*
X55533095Y-91463809D01*
X55533095Y-91463809D02*
X55723571Y-91416190D01*
X55723571Y-91416190D02*
X55961666Y-91416190D01*
X55961666Y-91416190D02*
X56152142Y-91463809D01*
X56152142Y-91463809D02*
X56247380Y-91511428D01*
X56247380Y-91511428D02*
X56295000Y-91559047D01*
X56295000Y-91559047D02*
X56342619Y-91654285D01*
X56342619Y-91654285D02*
X56342619Y-91749523D01*
X56342619Y-91749523D02*
X56295000Y-91844761D01*
X56295000Y-91844761D02*
X56247380Y-91892380D01*
X56247380Y-91892380D02*
X56152142Y-91939999D01*
X56152142Y-91939999D02*
X55961666Y-91987618D01*
X55961666Y-91987618D02*
X55723571Y-91987618D01*
X55723571Y-91987618D02*
X55533095Y-91939999D01*
X55533095Y-91939999D02*
X55437857Y-91892380D01*
X55437857Y-91892380D02*
X55390238Y-91844761D01*
X55390238Y-91844761D02*
X55342619Y-91749523D01*
X55342619Y-90035237D02*
X55342619Y-89844761D01*
X55342619Y-89844761D02*
X55390238Y-89749523D01*
X55390238Y-89749523D02*
X55485476Y-89654285D01*
X55485476Y-89654285D02*
X55675952Y-89606666D01*
X55675952Y-89606666D02*
X56009285Y-89606666D01*
X56009285Y-89606666D02*
X56199761Y-89654285D01*
X56199761Y-89654285D02*
X56295000Y-89749523D01*
X56295000Y-89749523D02*
X56342619Y-89844761D01*
X56342619Y-89844761D02*
X56342619Y-90035237D01*
X56342619Y-90035237D02*
X56295000Y-90130475D01*
X56295000Y-90130475D02*
X56199761Y-90225713D01*
X56199761Y-90225713D02*
X56009285Y-90273332D01*
X56009285Y-90273332D02*
X55675952Y-90273332D01*
X55675952Y-90273332D02*
X55485476Y-90225713D01*
X55485476Y-90225713D02*
X55390238Y-90130475D01*
X55390238Y-90130475D02*
X55342619Y-90035237D01*
X55675952Y-88749523D02*
X56342619Y-88749523D01*
X55675952Y-89178094D02*
X56199761Y-89178094D01*
X56199761Y-89178094D02*
X56295000Y-89130475D01*
X56295000Y-89130475D02*
X56342619Y-89035237D01*
X56342619Y-89035237D02*
X56342619Y-88892380D01*
X56342619Y-88892380D02*
X56295000Y-88797142D01*
X56295000Y-88797142D02*
X56247380Y-88749523D01*
X55675952Y-88416189D02*
X55675952Y-88035237D01*
X55342619Y-88273332D02*
X56199761Y-88273332D01*
X56199761Y-88273332D02*
X56295000Y-88225713D01*
X56295000Y-88225713D02*
X56342619Y-88130475D01*
X56342619Y-88130475D02*
X56342619Y-88035237D01*
X56295000Y-87749522D02*
X56342619Y-87654284D01*
X56342619Y-87654284D02*
X56342619Y-87463808D01*
X56342619Y-87463808D02*
X56295000Y-87368570D01*
X56295000Y-87368570D02*
X56199761Y-87320951D01*
X56199761Y-87320951D02*
X56152142Y-87320951D01*
X56152142Y-87320951D02*
X56056904Y-87368570D01*
X56056904Y-87368570D02*
X56009285Y-87463808D01*
X56009285Y-87463808D02*
X56009285Y-87606665D01*
X56009285Y-87606665D02*
X55961666Y-87701903D01*
X55961666Y-87701903D02*
X55866428Y-87749522D01*
X55866428Y-87749522D02*
X55818809Y-87749522D01*
X55818809Y-87749522D02*
X55723571Y-87701903D01*
X55723571Y-87701903D02*
X55675952Y-87606665D01*
X55675952Y-87606665D02*
X55675952Y-87463808D01*
X55675952Y-87463808D02*
X55723571Y-87368570D01*
X56342619Y-86892379D02*
X55675952Y-86892379D01*
X55342619Y-86892379D02*
X55390238Y-86939998D01*
X55390238Y-86939998D02*
X55437857Y-86892379D01*
X55437857Y-86892379D02*
X55390238Y-86844760D01*
X55390238Y-86844760D02*
X55342619Y-86892379D01*
X55342619Y-86892379D02*
X55437857Y-86892379D01*
X56342619Y-85987618D02*
X55342619Y-85987618D01*
X56295000Y-85987618D02*
X56342619Y-86082856D01*
X56342619Y-86082856D02*
X56342619Y-86273332D01*
X56342619Y-86273332D02*
X56295000Y-86368570D01*
X56295000Y-86368570D02*
X56247380Y-86416189D01*
X56247380Y-86416189D02*
X56152142Y-86463808D01*
X56152142Y-86463808D02*
X55866428Y-86463808D01*
X55866428Y-86463808D02*
X55771190Y-86416189D01*
X55771190Y-86416189D02*
X55723571Y-86368570D01*
X55723571Y-86368570D02*
X55675952Y-86273332D01*
X55675952Y-86273332D02*
X55675952Y-86082856D01*
X55675952Y-86082856D02*
X55723571Y-85987618D01*
X56295000Y-85130475D02*
X56342619Y-85225713D01*
X56342619Y-85225713D02*
X56342619Y-85416189D01*
X56342619Y-85416189D02*
X56295000Y-85511427D01*
X56295000Y-85511427D02*
X56199761Y-85559046D01*
X56199761Y-85559046D02*
X55818809Y-85559046D01*
X55818809Y-85559046D02*
X55723571Y-85511427D01*
X55723571Y-85511427D02*
X55675952Y-85416189D01*
X55675952Y-85416189D02*
X55675952Y-85225713D01*
X55675952Y-85225713D02*
X55723571Y-85130475D01*
X55723571Y-85130475D02*
X55818809Y-85082856D01*
X55818809Y-85082856D02*
X55914047Y-85082856D01*
X55914047Y-85082856D02*
X56009285Y-85559046D01*
%TO.C,BMP 180 Inside*%
X53278809Y-112084761D02*
X53326428Y-111941904D01*
X53326428Y-111941904D02*
X53374047Y-111894285D01*
X53374047Y-111894285D02*
X53469285Y-111846666D01*
X53469285Y-111846666D02*
X53612142Y-111846666D01*
X53612142Y-111846666D02*
X53707380Y-111894285D01*
X53707380Y-111894285D02*
X53755000Y-111941904D01*
X53755000Y-111941904D02*
X53802619Y-112037142D01*
X53802619Y-112037142D02*
X53802619Y-112418094D01*
X53802619Y-112418094D02*
X52802619Y-112418094D01*
X52802619Y-112418094D02*
X52802619Y-112084761D01*
X52802619Y-112084761D02*
X52850238Y-111989523D01*
X52850238Y-111989523D02*
X52897857Y-111941904D01*
X52897857Y-111941904D02*
X52993095Y-111894285D01*
X52993095Y-111894285D02*
X53088333Y-111894285D01*
X53088333Y-111894285D02*
X53183571Y-111941904D01*
X53183571Y-111941904D02*
X53231190Y-111989523D01*
X53231190Y-111989523D02*
X53278809Y-112084761D01*
X53278809Y-112084761D02*
X53278809Y-112418094D01*
X53802619Y-111418094D02*
X52802619Y-111418094D01*
X52802619Y-111418094D02*
X53516904Y-111084761D01*
X53516904Y-111084761D02*
X52802619Y-110751428D01*
X52802619Y-110751428D02*
X53802619Y-110751428D01*
X53802619Y-110275237D02*
X52802619Y-110275237D01*
X52802619Y-110275237D02*
X52802619Y-109894285D01*
X52802619Y-109894285D02*
X52850238Y-109799047D01*
X52850238Y-109799047D02*
X52897857Y-109751428D01*
X52897857Y-109751428D02*
X52993095Y-109703809D01*
X52993095Y-109703809D02*
X53135952Y-109703809D01*
X53135952Y-109703809D02*
X53231190Y-109751428D01*
X53231190Y-109751428D02*
X53278809Y-109799047D01*
X53278809Y-109799047D02*
X53326428Y-109894285D01*
X53326428Y-109894285D02*
X53326428Y-110275237D01*
X53802619Y-107989523D02*
X53802619Y-108560951D01*
X53802619Y-108275237D02*
X52802619Y-108275237D01*
X52802619Y-108275237D02*
X52945476Y-108370475D01*
X52945476Y-108370475D02*
X53040714Y-108465713D01*
X53040714Y-108465713D02*
X53088333Y-108560951D01*
X53231190Y-107418094D02*
X53183571Y-107513332D01*
X53183571Y-107513332D02*
X53135952Y-107560951D01*
X53135952Y-107560951D02*
X53040714Y-107608570D01*
X53040714Y-107608570D02*
X52993095Y-107608570D01*
X52993095Y-107608570D02*
X52897857Y-107560951D01*
X52897857Y-107560951D02*
X52850238Y-107513332D01*
X52850238Y-107513332D02*
X52802619Y-107418094D01*
X52802619Y-107418094D02*
X52802619Y-107227618D01*
X52802619Y-107227618D02*
X52850238Y-107132380D01*
X52850238Y-107132380D02*
X52897857Y-107084761D01*
X52897857Y-107084761D02*
X52993095Y-107037142D01*
X52993095Y-107037142D02*
X53040714Y-107037142D01*
X53040714Y-107037142D02*
X53135952Y-107084761D01*
X53135952Y-107084761D02*
X53183571Y-107132380D01*
X53183571Y-107132380D02*
X53231190Y-107227618D01*
X53231190Y-107227618D02*
X53231190Y-107418094D01*
X53231190Y-107418094D02*
X53278809Y-107513332D01*
X53278809Y-107513332D02*
X53326428Y-107560951D01*
X53326428Y-107560951D02*
X53421666Y-107608570D01*
X53421666Y-107608570D02*
X53612142Y-107608570D01*
X53612142Y-107608570D02*
X53707380Y-107560951D01*
X53707380Y-107560951D02*
X53755000Y-107513332D01*
X53755000Y-107513332D02*
X53802619Y-107418094D01*
X53802619Y-107418094D02*
X53802619Y-107227618D01*
X53802619Y-107227618D02*
X53755000Y-107132380D01*
X53755000Y-107132380D02*
X53707380Y-107084761D01*
X53707380Y-107084761D02*
X53612142Y-107037142D01*
X53612142Y-107037142D02*
X53421666Y-107037142D01*
X53421666Y-107037142D02*
X53326428Y-107084761D01*
X53326428Y-107084761D02*
X53278809Y-107132380D01*
X53278809Y-107132380D02*
X53231190Y-107227618D01*
X52802619Y-106418094D02*
X52802619Y-106322856D01*
X52802619Y-106322856D02*
X52850238Y-106227618D01*
X52850238Y-106227618D02*
X52897857Y-106179999D01*
X52897857Y-106179999D02*
X52993095Y-106132380D01*
X52993095Y-106132380D02*
X53183571Y-106084761D01*
X53183571Y-106084761D02*
X53421666Y-106084761D01*
X53421666Y-106084761D02*
X53612142Y-106132380D01*
X53612142Y-106132380D02*
X53707380Y-106179999D01*
X53707380Y-106179999D02*
X53755000Y-106227618D01*
X53755000Y-106227618D02*
X53802619Y-106322856D01*
X53802619Y-106322856D02*
X53802619Y-106418094D01*
X53802619Y-106418094D02*
X53755000Y-106513332D01*
X53755000Y-106513332D02*
X53707380Y-106560951D01*
X53707380Y-106560951D02*
X53612142Y-106608570D01*
X53612142Y-106608570D02*
X53421666Y-106656189D01*
X53421666Y-106656189D02*
X53183571Y-106656189D01*
X53183571Y-106656189D02*
X52993095Y-106608570D01*
X52993095Y-106608570D02*
X52897857Y-106560951D01*
X52897857Y-106560951D02*
X52850238Y-106513332D01*
X52850238Y-106513332D02*
X52802619Y-106418094D01*
X53802619Y-104894284D02*
X52802619Y-104894284D01*
X53135952Y-104418094D02*
X53802619Y-104418094D01*
X53231190Y-104418094D02*
X53183571Y-104370475D01*
X53183571Y-104370475D02*
X53135952Y-104275237D01*
X53135952Y-104275237D02*
X53135952Y-104132380D01*
X53135952Y-104132380D02*
X53183571Y-104037142D01*
X53183571Y-104037142D02*
X53278809Y-103989523D01*
X53278809Y-103989523D02*
X53802619Y-103989523D01*
X53755000Y-103560951D02*
X53802619Y-103465713D01*
X53802619Y-103465713D02*
X53802619Y-103275237D01*
X53802619Y-103275237D02*
X53755000Y-103179999D01*
X53755000Y-103179999D02*
X53659761Y-103132380D01*
X53659761Y-103132380D02*
X53612142Y-103132380D01*
X53612142Y-103132380D02*
X53516904Y-103179999D01*
X53516904Y-103179999D02*
X53469285Y-103275237D01*
X53469285Y-103275237D02*
X53469285Y-103418094D01*
X53469285Y-103418094D02*
X53421666Y-103513332D01*
X53421666Y-103513332D02*
X53326428Y-103560951D01*
X53326428Y-103560951D02*
X53278809Y-103560951D01*
X53278809Y-103560951D02*
X53183571Y-103513332D01*
X53183571Y-103513332D02*
X53135952Y-103418094D01*
X53135952Y-103418094D02*
X53135952Y-103275237D01*
X53135952Y-103275237D02*
X53183571Y-103179999D01*
X53802619Y-102703808D02*
X53135952Y-102703808D01*
X52802619Y-102703808D02*
X52850238Y-102751427D01*
X52850238Y-102751427D02*
X52897857Y-102703808D01*
X52897857Y-102703808D02*
X52850238Y-102656189D01*
X52850238Y-102656189D02*
X52802619Y-102703808D01*
X52802619Y-102703808D02*
X52897857Y-102703808D01*
X53802619Y-101799047D02*
X52802619Y-101799047D01*
X53755000Y-101799047D02*
X53802619Y-101894285D01*
X53802619Y-101894285D02*
X53802619Y-102084761D01*
X53802619Y-102084761D02*
X53755000Y-102179999D01*
X53755000Y-102179999D02*
X53707380Y-102227618D01*
X53707380Y-102227618D02*
X53612142Y-102275237D01*
X53612142Y-102275237D02*
X53326428Y-102275237D01*
X53326428Y-102275237D02*
X53231190Y-102227618D01*
X53231190Y-102227618D02*
X53183571Y-102179999D01*
X53183571Y-102179999D02*
X53135952Y-102084761D01*
X53135952Y-102084761D02*
X53135952Y-101894285D01*
X53135952Y-101894285D02*
X53183571Y-101799047D01*
X53755000Y-100941904D02*
X53802619Y-101037142D01*
X53802619Y-101037142D02*
X53802619Y-101227618D01*
X53802619Y-101227618D02*
X53755000Y-101322856D01*
X53755000Y-101322856D02*
X53659761Y-101370475D01*
X53659761Y-101370475D02*
X53278809Y-101370475D01*
X53278809Y-101370475D02*
X53183571Y-101322856D01*
X53183571Y-101322856D02*
X53135952Y-101227618D01*
X53135952Y-101227618D02*
X53135952Y-101037142D01*
X53135952Y-101037142D02*
X53183571Y-100941904D01*
X53183571Y-100941904D02*
X53278809Y-100894285D01*
X53278809Y-100894285D02*
X53374047Y-100894285D01*
X53374047Y-100894285D02*
X53469285Y-101370475D01*
%TO.C,*%
%TO.C,Arduino pro mini*%
X96696904Y-72211666D02*
X96696904Y-71735476D01*
X96982619Y-72306904D02*
X95982619Y-71973571D01*
X95982619Y-71973571D02*
X96982619Y-71640238D01*
X96982619Y-71306904D02*
X96315952Y-71306904D01*
X96506428Y-71306904D02*
X96411190Y-71259285D01*
X96411190Y-71259285D02*
X96363571Y-71211666D01*
X96363571Y-71211666D02*
X96315952Y-71116428D01*
X96315952Y-71116428D02*
X96315952Y-71021190D01*
X96982619Y-70259285D02*
X95982619Y-70259285D01*
X96935000Y-70259285D02*
X96982619Y-70354523D01*
X96982619Y-70354523D02*
X96982619Y-70544999D01*
X96982619Y-70544999D02*
X96935000Y-70640237D01*
X96935000Y-70640237D02*
X96887380Y-70687856D01*
X96887380Y-70687856D02*
X96792142Y-70735475D01*
X96792142Y-70735475D02*
X96506428Y-70735475D01*
X96506428Y-70735475D02*
X96411190Y-70687856D01*
X96411190Y-70687856D02*
X96363571Y-70640237D01*
X96363571Y-70640237D02*
X96315952Y-70544999D01*
X96315952Y-70544999D02*
X96315952Y-70354523D01*
X96315952Y-70354523D02*
X96363571Y-70259285D01*
X96315952Y-69354523D02*
X96982619Y-69354523D01*
X96315952Y-69783094D02*
X96839761Y-69783094D01*
X96839761Y-69783094D02*
X96935000Y-69735475D01*
X96935000Y-69735475D02*
X96982619Y-69640237D01*
X96982619Y-69640237D02*
X96982619Y-69497380D01*
X96982619Y-69497380D02*
X96935000Y-69402142D01*
X96935000Y-69402142D02*
X96887380Y-69354523D01*
X96982619Y-68878332D02*
X96315952Y-68878332D01*
X95982619Y-68878332D02*
X96030238Y-68925951D01*
X96030238Y-68925951D02*
X96077857Y-68878332D01*
X96077857Y-68878332D02*
X96030238Y-68830713D01*
X96030238Y-68830713D02*
X95982619Y-68878332D01*
X95982619Y-68878332D02*
X96077857Y-68878332D01*
X96315952Y-68402142D02*
X96982619Y-68402142D01*
X96411190Y-68402142D02*
X96363571Y-68354523D01*
X96363571Y-68354523D02*
X96315952Y-68259285D01*
X96315952Y-68259285D02*
X96315952Y-68116428D01*
X96315952Y-68116428D02*
X96363571Y-68021190D01*
X96363571Y-68021190D02*
X96458809Y-67973571D01*
X96458809Y-67973571D02*
X96982619Y-67973571D01*
X96982619Y-67354523D02*
X96935000Y-67449761D01*
X96935000Y-67449761D02*
X96887380Y-67497380D01*
X96887380Y-67497380D02*
X96792142Y-67544999D01*
X96792142Y-67544999D02*
X96506428Y-67544999D01*
X96506428Y-67544999D02*
X96411190Y-67497380D01*
X96411190Y-67497380D02*
X96363571Y-67449761D01*
X96363571Y-67449761D02*
X96315952Y-67354523D01*
X96315952Y-67354523D02*
X96315952Y-67211666D01*
X96315952Y-67211666D02*
X96363571Y-67116428D01*
X96363571Y-67116428D02*
X96411190Y-67068809D01*
X96411190Y-67068809D02*
X96506428Y-67021190D01*
X96506428Y-67021190D02*
X96792142Y-67021190D01*
X96792142Y-67021190D02*
X96887380Y-67068809D01*
X96887380Y-67068809D02*
X96935000Y-67116428D01*
X96935000Y-67116428D02*
X96982619Y-67211666D01*
X96982619Y-67211666D02*
X96982619Y-67354523D01*
X96315952Y-65830713D02*
X97315952Y-65830713D01*
X96363571Y-65830713D02*
X96315952Y-65735475D01*
X96315952Y-65735475D02*
X96315952Y-65544999D01*
X96315952Y-65544999D02*
X96363571Y-65449761D01*
X96363571Y-65449761D02*
X96411190Y-65402142D01*
X96411190Y-65402142D02*
X96506428Y-65354523D01*
X96506428Y-65354523D02*
X96792142Y-65354523D01*
X96792142Y-65354523D02*
X96887380Y-65402142D01*
X96887380Y-65402142D02*
X96935000Y-65449761D01*
X96935000Y-65449761D02*
X96982619Y-65544999D01*
X96982619Y-65544999D02*
X96982619Y-65735475D01*
X96982619Y-65735475D02*
X96935000Y-65830713D01*
X96982619Y-64925951D02*
X96315952Y-64925951D01*
X96506428Y-64925951D02*
X96411190Y-64878332D01*
X96411190Y-64878332D02*
X96363571Y-64830713D01*
X96363571Y-64830713D02*
X96315952Y-64735475D01*
X96315952Y-64735475D02*
X96315952Y-64640237D01*
X96982619Y-64164046D02*
X96935000Y-64259284D01*
X96935000Y-64259284D02*
X96887380Y-64306903D01*
X96887380Y-64306903D02*
X96792142Y-64354522D01*
X96792142Y-64354522D02*
X96506428Y-64354522D01*
X96506428Y-64354522D02*
X96411190Y-64306903D01*
X96411190Y-64306903D02*
X96363571Y-64259284D01*
X96363571Y-64259284D02*
X96315952Y-64164046D01*
X96315952Y-64164046D02*
X96315952Y-64021189D01*
X96315952Y-64021189D02*
X96363571Y-63925951D01*
X96363571Y-63925951D02*
X96411190Y-63878332D01*
X96411190Y-63878332D02*
X96506428Y-63830713D01*
X96506428Y-63830713D02*
X96792142Y-63830713D01*
X96792142Y-63830713D02*
X96887380Y-63878332D01*
X96887380Y-63878332D02*
X96935000Y-63925951D01*
X96935000Y-63925951D02*
X96982619Y-64021189D01*
X96982619Y-64021189D02*
X96982619Y-64164046D01*
X96982619Y-62640236D02*
X96315952Y-62640236D01*
X96411190Y-62640236D02*
X96363571Y-62592617D01*
X96363571Y-62592617D02*
X96315952Y-62497379D01*
X96315952Y-62497379D02*
X96315952Y-62354522D01*
X96315952Y-62354522D02*
X96363571Y-62259284D01*
X96363571Y-62259284D02*
X96458809Y-62211665D01*
X96458809Y-62211665D02*
X96982619Y-62211665D01*
X96458809Y-62211665D02*
X96363571Y-62164046D01*
X96363571Y-62164046D02*
X96315952Y-62068808D01*
X96315952Y-62068808D02*
X96315952Y-61925951D01*
X96315952Y-61925951D02*
X96363571Y-61830712D01*
X96363571Y-61830712D02*
X96458809Y-61783093D01*
X96458809Y-61783093D02*
X96982619Y-61783093D01*
X96982619Y-61306903D02*
X96315952Y-61306903D01*
X95982619Y-61306903D02*
X96030238Y-61354522D01*
X96030238Y-61354522D02*
X96077857Y-61306903D01*
X96077857Y-61306903D02*
X96030238Y-61259284D01*
X96030238Y-61259284D02*
X95982619Y-61306903D01*
X95982619Y-61306903D02*
X96077857Y-61306903D01*
X96315952Y-60830713D02*
X96982619Y-60830713D01*
X96411190Y-60830713D02*
X96363571Y-60783094D01*
X96363571Y-60783094D02*
X96315952Y-60687856D01*
X96315952Y-60687856D02*
X96315952Y-60544999D01*
X96315952Y-60544999D02*
X96363571Y-60449761D01*
X96363571Y-60449761D02*
X96458809Y-60402142D01*
X96458809Y-60402142D02*
X96982619Y-60402142D01*
X96982619Y-59925951D02*
X96315952Y-59925951D01*
X95982619Y-59925951D02*
X96030238Y-59973570D01*
X96030238Y-59973570D02*
X96077857Y-59925951D01*
X96077857Y-59925951D02*
X96030238Y-59878332D01*
X96030238Y-59878332D02*
X95982619Y-59925951D01*
X95982619Y-59925951D02*
X96077857Y-59925951D01*
%TO.C,Buttons*%
X98998809Y-108941905D02*
X99046428Y-108799048D01*
X99046428Y-108799048D02*
X99094047Y-108751429D01*
X99094047Y-108751429D02*
X99189285Y-108703810D01*
X99189285Y-108703810D02*
X99332142Y-108703810D01*
X99332142Y-108703810D02*
X99427380Y-108751429D01*
X99427380Y-108751429D02*
X99475000Y-108799048D01*
X99475000Y-108799048D02*
X99522619Y-108894286D01*
X99522619Y-108894286D02*
X99522619Y-109275238D01*
X99522619Y-109275238D02*
X98522619Y-109275238D01*
X98522619Y-109275238D02*
X98522619Y-108941905D01*
X98522619Y-108941905D02*
X98570238Y-108846667D01*
X98570238Y-108846667D02*
X98617857Y-108799048D01*
X98617857Y-108799048D02*
X98713095Y-108751429D01*
X98713095Y-108751429D02*
X98808333Y-108751429D01*
X98808333Y-108751429D02*
X98903571Y-108799048D01*
X98903571Y-108799048D02*
X98951190Y-108846667D01*
X98951190Y-108846667D02*
X98998809Y-108941905D01*
X98998809Y-108941905D02*
X98998809Y-109275238D01*
X98855952Y-107846667D02*
X99522619Y-107846667D01*
X98855952Y-108275238D02*
X99379761Y-108275238D01*
X99379761Y-108275238D02*
X99475000Y-108227619D01*
X99475000Y-108227619D02*
X99522619Y-108132381D01*
X99522619Y-108132381D02*
X99522619Y-107989524D01*
X99522619Y-107989524D02*
X99475000Y-107894286D01*
X99475000Y-107894286D02*
X99427380Y-107846667D01*
X98855952Y-107513333D02*
X98855952Y-107132381D01*
X98522619Y-107370476D02*
X99379761Y-107370476D01*
X99379761Y-107370476D02*
X99475000Y-107322857D01*
X99475000Y-107322857D02*
X99522619Y-107227619D01*
X99522619Y-107227619D02*
X99522619Y-107132381D01*
X98855952Y-106941904D02*
X98855952Y-106560952D01*
X98522619Y-106799047D02*
X99379761Y-106799047D01*
X99379761Y-106799047D02*
X99475000Y-106751428D01*
X99475000Y-106751428D02*
X99522619Y-106656190D01*
X99522619Y-106656190D02*
X99522619Y-106560952D01*
X99522619Y-106084761D02*
X99475000Y-106179999D01*
X99475000Y-106179999D02*
X99427380Y-106227618D01*
X99427380Y-106227618D02*
X99332142Y-106275237D01*
X99332142Y-106275237D02*
X99046428Y-106275237D01*
X99046428Y-106275237D02*
X98951190Y-106227618D01*
X98951190Y-106227618D02*
X98903571Y-106179999D01*
X98903571Y-106179999D02*
X98855952Y-106084761D01*
X98855952Y-106084761D02*
X98855952Y-105941904D01*
X98855952Y-105941904D02*
X98903571Y-105846666D01*
X98903571Y-105846666D02*
X98951190Y-105799047D01*
X98951190Y-105799047D02*
X99046428Y-105751428D01*
X99046428Y-105751428D02*
X99332142Y-105751428D01*
X99332142Y-105751428D02*
X99427380Y-105799047D01*
X99427380Y-105799047D02*
X99475000Y-105846666D01*
X99475000Y-105846666D02*
X99522619Y-105941904D01*
X99522619Y-105941904D02*
X99522619Y-106084761D01*
X98855952Y-105322856D02*
X99522619Y-105322856D01*
X98951190Y-105322856D02*
X98903571Y-105275237D01*
X98903571Y-105275237D02*
X98855952Y-105179999D01*
X98855952Y-105179999D02*
X98855952Y-105037142D01*
X98855952Y-105037142D02*
X98903571Y-104941904D01*
X98903571Y-104941904D02*
X98998809Y-104894285D01*
X98998809Y-104894285D02*
X99522619Y-104894285D01*
X99475000Y-104465713D02*
X99522619Y-104370475D01*
X99522619Y-104370475D02*
X99522619Y-104179999D01*
X99522619Y-104179999D02*
X99475000Y-104084761D01*
X99475000Y-104084761D02*
X99379761Y-104037142D01*
X99379761Y-104037142D02*
X99332142Y-104037142D01*
X99332142Y-104037142D02*
X99236904Y-104084761D01*
X99236904Y-104084761D02*
X99189285Y-104179999D01*
X99189285Y-104179999D02*
X99189285Y-104322856D01*
X99189285Y-104322856D02*
X99141666Y-104418094D01*
X99141666Y-104418094D02*
X99046428Y-104465713D01*
X99046428Y-104465713D02*
X98998809Y-104465713D01*
X98998809Y-104465713D02*
X98903571Y-104418094D01*
X98903571Y-104418094D02*
X98855952Y-104322856D01*
X98855952Y-104322856D02*
X98855952Y-104179999D01*
X98855952Y-104179999D02*
X98903571Y-104084761D01*
%TO.C,*%
%TO.C,32.768KHz*%
X46895238Y-55342619D02*
X47514285Y-55342619D01*
X47514285Y-55342619D02*
X47180952Y-55723571D01*
X47180952Y-55723571D02*
X47323809Y-55723571D01*
X47323809Y-55723571D02*
X47419047Y-55771190D01*
X47419047Y-55771190D02*
X47466666Y-55818809D01*
X47466666Y-55818809D02*
X47514285Y-55914047D01*
X47514285Y-55914047D02*
X47514285Y-56152142D01*
X47514285Y-56152142D02*
X47466666Y-56247380D01*
X47466666Y-56247380D02*
X47419047Y-56295000D01*
X47419047Y-56295000D02*
X47323809Y-56342619D01*
X47323809Y-56342619D02*
X47038095Y-56342619D01*
X47038095Y-56342619D02*
X46942857Y-56295000D01*
X46942857Y-56295000D02*
X46895238Y-56247380D01*
X47895238Y-55437857D02*
X47942857Y-55390238D01*
X47942857Y-55390238D02*
X48038095Y-55342619D01*
X48038095Y-55342619D02*
X48276190Y-55342619D01*
X48276190Y-55342619D02*
X48371428Y-55390238D01*
X48371428Y-55390238D02*
X48419047Y-55437857D01*
X48419047Y-55437857D02*
X48466666Y-55533095D01*
X48466666Y-55533095D02*
X48466666Y-55628333D01*
X48466666Y-55628333D02*
X48419047Y-55771190D01*
X48419047Y-55771190D02*
X47847619Y-56342619D01*
X47847619Y-56342619D02*
X48466666Y-56342619D01*
X48895238Y-56247380D02*
X48942857Y-56295000D01*
X48942857Y-56295000D02*
X48895238Y-56342619D01*
X48895238Y-56342619D02*
X48847619Y-56295000D01*
X48847619Y-56295000D02*
X48895238Y-56247380D01*
X48895238Y-56247380D02*
X48895238Y-56342619D01*
X49276190Y-55342619D02*
X49942856Y-55342619D01*
X49942856Y-55342619D02*
X49514285Y-56342619D01*
X50752380Y-55342619D02*
X50561904Y-55342619D01*
X50561904Y-55342619D02*
X50466666Y-55390238D01*
X50466666Y-55390238D02*
X50419047Y-55437857D01*
X50419047Y-55437857D02*
X50323809Y-55580714D01*
X50323809Y-55580714D02*
X50276190Y-55771190D01*
X50276190Y-55771190D02*
X50276190Y-56152142D01*
X50276190Y-56152142D02*
X50323809Y-56247380D01*
X50323809Y-56247380D02*
X50371428Y-56295000D01*
X50371428Y-56295000D02*
X50466666Y-56342619D01*
X50466666Y-56342619D02*
X50657142Y-56342619D01*
X50657142Y-56342619D02*
X50752380Y-56295000D01*
X50752380Y-56295000D02*
X50799999Y-56247380D01*
X50799999Y-56247380D02*
X50847618Y-56152142D01*
X50847618Y-56152142D02*
X50847618Y-55914047D01*
X50847618Y-55914047D02*
X50799999Y-55818809D01*
X50799999Y-55818809D02*
X50752380Y-55771190D01*
X50752380Y-55771190D02*
X50657142Y-55723571D01*
X50657142Y-55723571D02*
X50466666Y-55723571D01*
X50466666Y-55723571D02*
X50371428Y-55771190D01*
X50371428Y-55771190D02*
X50323809Y-55818809D01*
X50323809Y-55818809D02*
X50276190Y-55914047D01*
X51419047Y-55771190D02*
X51323809Y-55723571D01*
X51323809Y-55723571D02*
X51276190Y-55675952D01*
X51276190Y-55675952D02*
X51228571Y-55580714D01*
X51228571Y-55580714D02*
X51228571Y-55533095D01*
X51228571Y-55533095D02*
X51276190Y-55437857D01*
X51276190Y-55437857D02*
X51323809Y-55390238D01*
X51323809Y-55390238D02*
X51419047Y-55342619D01*
X51419047Y-55342619D02*
X51609523Y-55342619D01*
X51609523Y-55342619D02*
X51704761Y-55390238D01*
X51704761Y-55390238D02*
X51752380Y-55437857D01*
X51752380Y-55437857D02*
X51799999Y-55533095D01*
X51799999Y-55533095D02*
X51799999Y-55580714D01*
X51799999Y-55580714D02*
X51752380Y-55675952D01*
X51752380Y-55675952D02*
X51704761Y-55723571D01*
X51704761Y-55723571D02*
X51609523Y-55771190D01*
X51609523Y-55771190D02*
X51419047Y-55771190D01*
X51419047Y-55771190D02*
X51323809Y-55818809D01*
X51323809Y-55818809D02*
X51276190Y-55866428D01*
X51276190Y-55866428D02*
X51228571Y-55961666D01*
X51228571Y-55961666D02*
X51228571Y-56152142D01*
X51228571Y-56152142D02*
X51276190Y-56247380D01*
X51276190Y-56247380D02*
X51323809Y-56295000D01*
X51323809Y-56295000D02*
X51419047Y-56342619D01*
X51419047Y-56342619D02*
X51609523Y-56342619D01*
X51609523Y-56342619D02*
X51704761Y-56295000D01*
X51704761Y-56295000D02*
X51752380Y-56247380D01*
X51752380Y-56247380D02*
X51799999Y-56152142D01*
X51799999Y-56152142D02*
X51799999Y-55961666D01*
X51799999Y-55961666D02*
X51752380Y-55866428D01*
X51752380Y-55866428D02*
X51704761Y-55818809D01*
X51704761Y-55818809D02*
X51609523Y-55771190D01*
X52228571Y-56342619D02*
X52228571Y-55342619D01*
X52799999Y-56342619D02*
X52371428Y-55771190D01*
X52799999Y-55342619D02*
X52228571Y-55914047D01*
X53228571Y-56342619D02*
X53228571Y-55342619D01*
X53228571Y-55818809D02*
X53799999Y-55818809D01*
X53799999Y-56342619D02*
X53799999Y-55342619D01*
X54180952Y-55675952D02*
X54704761Y-55675952D01*
X54704761Y-55675952D02*
X54180952Y-56342619D01*
X54180952Y-56342619D02*
X54704761Y-56342619D01*
%TO.C,*%
%TO.C,I2C *%
X69762857Y-96982619D02*
X69762857Y-95982619D01*
X70191428Y-96077857D02*
X70239047Y-96030238D01*
X70239047Y-96030238D02*
X70334285Y-95982619D01*
X70334285Y-95982619D02*
X70572380Y-95982619D01*
X70572380Y-95982619D02*
X70667618Y-96030238D01*
X70667618Y-96030238D02*
X70715237Y-96077857D01*
X70715237Y-96077857D02*
X70762856Y-96173095D01*
X70762856Y-96173095D02*
X70762856Y-96268333D01*
X70762856Y-96268333D02*
X70715237Y-96411190D01*
X70715237Y-96411190D02*
X70143809Y-96982619D01*
X70143809Y-96982619D02*
X70762856Y-96982619D01*
X71762856Y-96887380D02*
X71715237Y-96935000D01*
X71715237Y-96935000D02*
X71572380Y-96982619D01*
X71572380Y-96982619D02*
X71477142Y-96982619D01*
X71477142Y-96982619D02*
X71334285Y-96935000D01*
X71334285Y-96935000D02*
X71239047Y-96839761D01*
X71239047Y-96839761D02*
X71191428Y-96744523D01*
X71191428Y-96744523D02*
X71143809Y-96554047D01*
X71143809Y-96554047D02*
X71143809Y-96411190D01*
X71143809Y-96411190D02*
X71191428Y-96220714D01*
X71191428Y-96220714D02*
X71239047Y-96125476D01*
X71239047Y-96125476D02*
X71334285Y-96030238D01*
X71334285Y-96030238D02*
X71477142Y-95982619D01*
X71477142Y-95982619D02*
X71572380Y-95982619D01*
X71572380Y-95982619D02*
X71715237Y-96030238D01*
X71715237Y-96030238D02*
X71762856Y-96077857D01*
%TO.C,*%
%TO.C,3.3V*%
X50262619Y-64976189D02*
X50262619Y-64357142D01*
X50262619Y-64357142D02*
X50643571Y-64690475D01*
X50643571Y-64690475D02*
X50643571Y-64547618D01*
X50643571Y-64547618D02*
X50691190Y-64452380D01*
X50691190Y-64452380D02*
X50738809Y-64404761D01*
X50738809Y-64404761D02*
X50834047Y-64357142D01*
X50834047Y-64357142D02*
X51072142Y-64357142D01*
X51072142Y-64357142D02*
X51167380Y-64404761D01*
X51167380Y-64404761D02*
X51215000Y-64452380D01*
X51215000Y-64452380D02*
X51262619Y-64547618D01*
X51262619Y-64547618D02*
X51262619Y-64833332D01*
X51262619Y-64833332D02*
X51215000Y-64928570D01*
X51215000Y-64928570D02*
X51167380Y-64976189D01*
X51167380Y-63928570D02*
X51215000Y-63880951D01*
X51215000Y-63880951D02*
X51262619Y-63928570D01*
X51262619Y-63928570D02*
X51215000Y-63976189D01*
X51215000Y-63976189D02*
X51167380Y-63928570D01*
X51167380Y-63928570D02*
X51262619Y-63928570D01*
X50262619Y-63547618D02*
X50262619Y-62928571D01*
X50262619Y-62928571D02*
X50643571Y-63261904D01*
X50643571Y-63261904D02*
X50643571Y-63119047D01*
X50643571Y-63119047D02*
X50691190Y-63023809D01*
X50691190Y-63023809D02*
X50738809Y-62976190D01*
X50738809Y-62976190D02*
X50834047Y-62928571D01*
X50834047Y-62928571D02*
X51072142Y-62928571D01*
X51072142Y-62928571D02*
X51167380Y-62976190D01*
X51167380Y-62976190D02*
X51215000Y-63023809D01*
X51215000Y-63023809D02*
X51262619Y-63119047D01*
X51262619Y-63119047D02*
X51262619Y-63404761D01*
X51262619Y-63404761D02*
X51215000Y-63499999D01*
X51215000Y-63499999D02*
X51167380Y-63547618D01*
X50262619Y-62642856D02*
X51262619Y-62309523D01*
X51262619Y-62309523D02*
X50262619Y-61976190D01*
X45842500Y-64729012D02*
X45842500Y-63586155D01*
X46413928Y-64157583D02*
X45271071Y-64157583D01*
%TO.C,OLED*%
X35022619Y-95432380D02*
X35022619Y-95241904D01*
X35022619Y-95241904D02*
X35070238Y-95146666D01*
X35070238Y-95146666D02*
X35165476Y-95051428D01*
X35165476Y-95051428D02*
X35355952Y-95003809D01*
X35355952Y-95003809D02*
X35689285Y-95003809D01*
X35689285Y-95003809D02*
X35879761Y-95051428D01*
X35879761Y-95051428D02*
X35975000Y-95146666D01*
X35975000Y-95146666D02*
X36022619Y-95241904D01*
X36022619Y-95241904D02*
X36022619Y-95432380D01*
X36022619Y-95432380D02*
X35975000Y-95527618D01*
X35975000Y-95527618D02*
X35879761Y-95622856D01*
X35879761Y-95622856D02*
X35689285Y-95670475D01*
X35689285Y-95670475D02*
X35355952Y-95670475D01*
X35355952Y-95670475D02*
X35165476Y-95622856D01*
X35165476Y-95622856D02*
X35070238Y-95527618D01*
X35070238Y-95527618D02*
X35022619Y-95432380D01*
X36022619Y-94099047D02*
X36022619Y-94575237D01*
X36022619Y-94575237D02*
X35022619Y-94575237D01*
X35498809Y-93765713D02*
X35498809Y-93432380D01*
X36022619Y-93289523D02*
X36022619Y-93765713D01*
X36022619Y-93765713D02*
X35022619Y-93765713D01*
X35022619Y-93765713D02*
X35022619Y-93289523D01*
X36022619Y-92860951D02*
X35022619Y-92860951D01*
X35022619Y-92860951D02*
X35022619Y-92622856D01*
X35022619Y-92622856D02*
X35070238Y-92479999D01*
X35070238Y-92479999D02*
X35165476Y-92384761D01*
X35165476Y-92384761D02*
X35260714Y-92337142D01*
X35260714Y-92337142D02*
X35451190Y-92289523D01*
X35451190Y-92289523D02*
X35594047Y-92289523D01*
X35594047Y-92289523D02*
X35784523Y-92337142D01*
X35784523Y-92337142D02*
X35879761Y-92384761D01*
X35879761Y-92384761D02*
X35975000Y-92479999D01*
X35975000Y-92479999D02*
X36022619Y-92622856D01*
X36022619Y-92622856D02*
X36022619Y-92860951D01*
%TO.C,*%
%TO.C,DS1302*%
X56342619Y-52172856D02*
X55342619Y-52172856D01*
X55342619Y-52172856D02*
X55342619Y-51934761D01*
X55342619Y-51934761D02*
X55390238Y-51791904D01*
X55390238Y-51791904D02*
X55485476Y-51696666D01*
X55485476Y-51696666D02*
X55580714Y-51649047D01*
X55580714Y-51649047D02*
X55771190Y-51601428D01*
X55771190Y-51601428D02*
X55914047Y-51601428D01*
X55914047Y-51601428D02*
X56104523Y-51649047D01*
X56104523Y-51649047D02*
X56199761Y-51696666D01*
X56199761Y-51696666D02*
X56295000Y-51791904D01*
X56295000Y-51791904D02*
X56342619Y-51934761D01*
X56342619Y-51934761D02*
X56342619Y-52172856D01*
X56295000Y-51220475D02*
X56342619Y-51077618D01*
X56342619Y-51077618D02*
X56342619Y-50839523D01*
X56342619Y-50839523D02*
X56295000Y-50744285D01*
X56295000Y-50744285D02*
X56247380Y-50696666D01*
X56247380Y-50696666D02*
X56152142Y-50649047D01*
X56152142Y-50649047D02*
X56056904Y-50649047D01*
X56056904Y-50649047D02*
X55961666Y-50696666D01*
X55961666Y-50696666D02*
X55914047Y-50744285D01*
X55914047Y-50744285D02*
X55866428Y-50839523D01*
X55866428Y-50839523D02*
X55818809Y-51029999D01*
X55818809Y-51029999D02*
X55771190Y-51125237D01*
X55771190Y-51125237D02*
X55723571Y-51172856D01*
X55723571Y-51172856D02*
X55628333Y-51220475D01*
X55628333Y-51220475D02*
X55533095Y-51220475D01*
X55533095Y-51220475D02*
X55437857Y-51172856D01*
X55437857Y-51172856D02*
X55390238Y-51125237D01*
X55390238Y-51125237D02*
X55342619Y-51029999D01*
X55342619Y-51029999D02*
X55342619Y-50791904D01*
X55342619Y-50791904D02*
X55390238Y-50649047D01*
X56342619Y-49696666D02*
X56342619Y-50268094D01*
X56342619Y-49982380D02*
X55342619Y-49982380D01*
X55342619Y-49982380D02*
X55485476Y-50077618D01*
X55485476Y-50077618D02*
X55580714Y-50172856D01*
X55580714Y-50172856D02*
X55628333Y-50268094D01*
X55342619Y-49363332D02*
X55342619Y-48744285D01*
X55342619Y-48744285D02*
X55723571Y-49077618D01*
X55723571Y-49077618D02*
X55723571Y-48934761D01*
X55723571Y-48934761D02*
X55771190Y-48839523D01*
X55771190Y-48839523D02*
X55818809Y-48791904D01*
X55818809Y-48791904D02*
X55914047Y-48744285D01*
X55914047Y-48744285D02*
X56152142Y-48744285D01*
X56152142Y-48744285D02*
X56247380Y-48791904D01*
X56247380Y-48791904D02*
X56295000Y-48839523D01*
X56295000Y-48839523D02*
X56342619Y-48934761D01*
X56342619Y-48934761D02*
X56342619Y-49220475D01*
X56342619Y-49220475D02*
X56295000Y-49315713D01*
X56295000Y-49315713D02*
X56247380Y-49363332D01*
X55342619Y-48125237D02*
X55342619Y-48029999D01*
X55342619Y-48029999D02*
X55390238Y-47934761D01*
X55390238Y-47934761D02*
X55437857Y-47887142D01*
X55437857Y-47887142D02*
X55533095Y-47839523D01*
X55533095Y-47839523D02*
X55723571Y-47791904D01*
X55723571Y-47791904D02*
X55961666Y-47791904D01*
X55961666Y-47791904D02*
X56152142Y-47839523D01*
X56152142Y-47839523D02*
X56247380Y-47887142D01*
X56247380Y-47887142D02*
X56295000Y-47934761D01*
X56295000Y-47934761D02*
X56342619Y-48029999D01*
X56342619Y-48029999D02*
X56342619Y-48125237D01*
X56342619Y-48125237D02*
X56295000Y-48220475D01*
X56295000Y-48220475D02*
X56247380Y-48268094D01*
X56247380Y-48268094D02*
X56152142Y-48315713D01*
X56152142Y-48315713D02*
X55961666Y-48363332D01*
X55961666Y-48363332D02*
X55723571Y-48363332D01*
X55723571Y-48363332D02*
X55533095Y-48315713D01*
X55533095Y-48315713D02*
X55437857Y-48268094D01*
X55437857Y-48268094D02*
X55390238Y-48220475D01*
X55390238Y-48220475D02*
X55342619Y-48125237D01*
X55437857Y-47410951D02*
X55390238Y-47363332D01*
X55390238Y-47363332D02*
X55342619Y-47268094D01*
X55342619Y-47268094D02*
X55342619Y-47029999D01*
X55342619Y-47029999D02*
X55390238Y-46934761D01*
X55390238Y-46934761D02*
X55437857Y-46887142D01*
X55437857Y-46887142D02*
X55533095Y-46839523D01*
X55533095Y-46839523D02*
X55628333Y-46839523D01*
X55628333Y-46839523D02*
X55771190Y-46887142D01*
X55771190Y-46887142D02*
X56342619Y-47458570D01*
X56342619Y-47458570D02*
X56342619Y-46839523D01*
%TO.C,*%
D10*
%TO.C,Power*%
X33940000Y-101300000D02*
X33200000Y-101300000D01*
X33200000Y-101300000D02*
X33200000Y-101800000D01*
X43361000Y-101540000D02*
X33440000Y-101540000D01*
X43361000Y-101540000D02*
X43361000Y-111820000D01*
X40401000Y-101540000D02*
X40401000Y-111820000D01*
X35500000Y-101540000D02*
X35500000Y-111820000D01*
X34000000Y-101540000D02*
X34000000Y-111820000D01*
X33440000Y-101540000D02*
X33440000Y-111820000D01*
X37077000Y-107993000D02*
X37031000Y-107946000D01*
X36861000Y-108186000D02*
X36826000Y-108151000D01*
X39375000Y-110290000D02*
X39339000Y-110255000D01*
X39169000Y-110495000D02*
X39123000Y-110448000D01*
X43361000Y-111820000D02*
X33440000Y-111820000D01*
X38783999Y-102605001D02*
G75*
G03*
X37416958Y-102604574I-684000J-1534992D01*
G01*
X39634999Y-104823999D02*
G75*
G03*
X39635426Y-103456958I-1534992J684000D01*
G01*
X36565001Y-103456000D02*
G75*
G03*
X36419748Y-104168805I1535000J-683999D01*
G01*
X36420001Y-104140000D02*
G75*
G03*
X36565245Y-104823318I1679999J0D01*
G01*
X37416000Y-105675000D02*
G75*
G03*
X38783042Y-105675426I684000J1535000D01*
G01*
X39780000Y-109220000D02*
G75*
G03*
X39780000Y-109220000I-1680000J0D01*
G01*
%TO.C,Rele*%
X36770000Y-54550000D02*
X38100000Y-54550000D01*
X36770000Y-55880000D02*
X36770000Y-54550000D01*
X36770000Y-57150000D02*
X36770000Y-64830000D01*
X36770000Y-57150000D02*
X39430000Y-57150000D01*
X36770000Y-64830000D02*
X39430000Y-64830000D01*
X39430000Y-57150000D02*
X39430000Y-64830000D01*
%TO.C,Sensors*%
X33635000Y-25100000D02*
X32895000Y-25100000D01*
X32895000Y-25100000D02*
X32895000Y-25600000D01*
X43056000Y-25340000D02*
X33135000Y-25340000D01*
X43056000Y-25340000D02*
X43056000Y-45780000D01*
X40096000Y-25340000D02*
X40096000Y-45780000D01*
X35195000Y-25340000D02*
X35195000Y-45780000D01*
X33695000Y-25340000D02*
X33695000Y-45780000D01*
X33135000Y-25340000D02*
X33135000Y-45780000D01*
X36772000Y-31793000D02*
X36726000Y-31746000D01*
X36556000Y-31986000D02*
X36521000Y-31951000D01*
X39070000Y-34090000D02*
X39034000Y-34055000D01*
X38864000Y-34295000D02*
X38818000Y-34248000D01*
X36772000Y-36873000D02*
X36726000Y-36826000D01*
X36556000Y-37066000D02*
X36521000Y-37031000D01*
X39070000Y-39170000D02*
X39034000Y-39135000D01*
X38864000Y-39375000D02*
X38818000Y-39328000D01*
X36772000Y-41953000D02*
X36726000Y-41906000D01*
X36556000Y-42146000D02*
X36521000Y-42111000D01*
X39070000Y-44250000D02*
X39034000Y-44215000D01*
X38864000Y-44455000D02*
X38818000Y-44408000D01*
X43056000Y-45780000D02*
X33135000Y-45780000D01*
X38478999Y-26405001D02*
G75*
G03*
X37111958Y-26404574I-684000J-1534992D01*
G01*
X39329999Y-28623999D02*
G75*
G03*
X39330426Y-27256958I-1534992J684000D01*
G01*
X36260001Y-27256000D02*
G75*
G03*
X36114748Y-27968805I1535000J-683999D01*
G01*
X36115001Y-27940000D02*
G75*
G03*
X36260245Y-28623318I1679999J0D01*
G01*
X37111000Y-29475000D02*
G75*
G03*
X38478042Y-29475426I684000J1535000D01*
G01*
X39475000Y-33020000D02*
G75*
G03*
X39475000Y-33020000I-1680000J0D01*
G01*
X39475000Y-38100000D02*
G75*
G03*
X39475000Y-38100000I-1680000J0D01*
G01*
X39475000Y-43180000D02*
G75*
G03*
X39475000Y-43180000I-1680000J0D01*
G01*
%TO.C,BMP 180 Outside*%
X59750000Y-92770000D02*
X58420000Y-92770000D01*
X59750000Y-91440000D02*
X59750000Y-92770000D01*
X59750000Y-90170000D02*
X59750000Y-82490000D01*
X59750000Y-90170000D02*
X57090000Y-90170000D01*
X59750000Y-82490000D02*
X57090000Y-82490000D01*
X57090000Y-90170000D02*
X57090000Y-82490000D01*
%TO.C,BMP 180 Inside*%
X49470000Y-100270000D02*
X50800000Y-100270000D01*
X49470000Y-101600000D02*
X49470000Y-100270000D01*
X49470000Y-102870000D02*
X49470000Y-110550000D01*
X49470000Y-102870000D02*
X52130000Y-102870000D01*
X49470000Y-110550000D02*
X52130000Y-110550000D01*
X52130000Y-102870000D02*
X52130000Y-110550000D01*
%TO.C,Arduino pro mini*%
X62170000Y-69965000D02*
X92770000Y-69965000D01*
X92770000Y-69965000D02*
X92770000Y-57045000D01*
X62170000Y-64505000D02*
X62170000Y-69965000D01*
X62170000Y-57045000D02*
X62170000Y-62505000D01*
X92770000Y-57045000D02*
X62170000Y-57045000D01*
X62170000Y-64505000D02*
G75*
G03*
X62170000Y-62505000I0J1000000D01*
G01*
%TO.C,Buttons*%
X55580000Y-111145000D02*
X55580000Y-111885000D01*
X55580000Y-111885000D02*
X56080000Y-111885000D01*
X55820000Y-101724000D02*
X55820000Y-111645000D01*
X55820000Y-101724000D02*
X96580000Y-101724000D01*
X55820000Y-104684000D02*
X96580000Y-104684000D01*
X55820000Y-109585000D02*
X96580000Y-109585000D01*
X55820000Y-111085000D02*
X96580000Y-111085000D01*
X55820000Y-111645000D02*
X96580000Y-111645000D01*
X62273000Y-108008000D02*
X62226000Y-108054000D01*
X62466000Y-108224000D02*
X62431000Y-108259000D01*
X64570000Y-105710000D02*
X64535000Y-105746000D01*
X64775000Y-105916000D02*
X64728000Y-105962000D01*
X67353000Y-108008000D02*
X67306000Y-108054000D01*
X67546000Y-108224000D02*
X67511000Y-108259000D01*
X69650000Y-105710000D02*
X69615000Y-105746000D01*
X69855000Y-105916000D02*
X69808000Y-105962000D01*
X72433000Y-108008000D02*
X72386000Y-108054000D01*
X72626000Y-108224000D02*
X72591000Y-108259000D01*
X74730000Y-105710000D02*
X74695000Y-105746000D01*
X74935000Y-105916000D02*
X74888000Y-105962000D01*
X77513000Y-108008000D02*
X77466000Y-108054000D01*
X77706000Y-108224000D02*
X77671000Y-108259000D01*
X79810000Y-105710000D02*
X79775000Y-105746000D01*
X80015000Y-105916000D02*
X79968000Y-105962000D01*
X82593000Y-108008000D02*
X82546000Y-108054000D01*
X82786000Y-108224000D02*
X82751000Y-108259000D01*
X84890000Y-105710000D02*
X84855000Y-105746000D01*
X85095000Y-105916000D02*
X85048000Y-105962000D01*
X87673000Y-108008000D02*
X87626000Y-108054000D01*
X87866000Y-108224000D02*
X87831000Y-108259000D01*
X89970000Y-105710000D02*
X89935000Y-105746000D01*
X90175000Y-105916000D02*
X90128000Y-105962000D01*
X92753000Y-108008000D02*
X92706000Y-108054000D01*
X92946000Y-108224000D02*
X92911000Y-108259000D01*
X95050000Y-105710000D02*
X95015000Y-105746000D01*
X95255000Y-105916000D02*
X95208000Y-105962000D01*
X96580000Y-101724000D02*
X96580000Y-111645000D01*
X56885001Y-106301001D02*
G75*
G03*
X56884574Y-107668042I1534992J-684000D01*
G01*
X59103999Y-105450001D02*
G75*
G03*
X57736958Y-105449574I-684000J-1534992D01*
G01*
X57736000Y-108519999D02*
G75*
G03*
X58448805Y-108665252I683999J1535000D01*
G01*
X58420000Y-108664999D02*
G75*
G03*
X59103318Y-108519755I0J1679999D01*
G01*
X59955000Y-107669000D02*
G75*
G03*
X59955426Y-106301958I-1535000J684000D01*
G01*
X65180000Y-106985000D02*
G75*
G03*
X65180000Y-106985000I-1680000J0D01*
G01*
X70260000Y-106985000D02*
G75*
G03*
X70260000Y-106985000I-1680000J0D01*
G01*
X75340000Y-106985000D02*
G75*
G03*
X75340000Y-106985000I-1680000J0D01*
G01*
X80420000Y-106985000D02*
G75*
G03*
X80420000Y-106985000I-1680000J0D01*
G01*
X85500000Y-106985000D02*
G75*
G03*
X85500000Y-106985000I-1680000J0D01*
G01*
X90580000Y-106985000D02*
G75*
G03*
X90580000Y-106985000I-1680000J0D01*
G01*
X95660000Y-106985000D02*
G75*
G03*
X95660000Y-106985000I-1680000J0D01*
G01*
%TO.C,32.768KHz*%
X52299390Y-57719347D02*
G75*
G03*
X50800000Y-57720000I-749390J-700653D01*
G01*
X50800000Y-59120000D02*
G75*
G03*
X52299390Y-59120653I750000J700000D01*
G01*
%TO.C,I2C *%
X72450000Y-97730000D02*
X72450000Y-99060000D01*
X71120000Y-97730000D02*
X72450000Y-97730000D01*
X69850000Y-97730000D02*
X67250000Y-97730000D01*
X69850000Y-97730000D02*
X69850000Y-100390000D01*
X67250000Y-97730000D02*
X67250000Y-100390000D01*
X69850000Y-100390000D02*
X67250000Y-100390000D01*
%TO.C,3.3V*%
X48720000Y-59207584D02*
X48720000Y-64907584D01*
X42720000Y-59207584D02*
X48720000Y-59207584D01*
X42720000Y-59207584D02*
X42720000Y-64907584D01*
X42193616Y-65659338D02*
G75*
G03*
X42720000Y-64907584I-273616J751754D01*
G01*
X45674719Y-88103255D02*
G75*
G03*
X49220000Y-65657584I45281J11495671D01*
G01*
X48720001Y-64907584D02*
G75*
G03*
X49246384Y-65659337I799999J0D01*
G01*
X42220000Y-65657584D02*
G75*
G03*
X45765281Y-88103255I3500000J-10950000D01*
G01*
%TO.C,OLED*%
X39430000Y-100390000D02*
X38100000Y-100390000D01*
X39430000Y-99060000D02*
X39430000Y-100390000D01*
X39430000Y-97790000D02*
X39430000Y-90110000D01*
X39430000Y-97790000D02*
X36770000Y-97790000D01*
X39430000Y-90110000D02*
X36770000Y-90110000D01*
X36770000Y-97790000D02*
X36770000Y-90110000D01*
%TO.C,DS1302*%
X44330000Y-54670000D02*
X54730000Y-54670000D01*
X54730000Y-54670000D02*
X54730000Y-44390000D01*
X44390000Y-52180000D02*
X54670000Y-52180000D01*
X54670000Y-52180000D02*
X54670000Y-46880000D01*
X44390000Y-50530000D02*
X44390000Y-52180000D01*
X44390000Y-46880000D02*
X44390000Y-48530000D01*
X54670000Y-46880000D02*
X44390000Y-46880000D01*
X44330000Y-44390000D02*
X44330000Y-54670000D01*
X54730000Y-44390000D02*
X44330000Y-44390000D01*
X44390000Y-50530000D02*
G75*
G03*
X44390000Y-48530000I0J1000000D01*
G01*
%TD*%
M02*
