M48
; DRILL file {KiCad 7.0.2-6a45011f42~172~ubuntu22.04.1} date Sun 07 May 2023 11:21:07 PM +04
; FORMAT={-:-/ absolute / inch / decimal}
; #@! TF.CreationDate,2023-05-07T23:21:07+04:00
; #@! TF.GenerationSoftware,Kicad,Pcbnew,7.0.2-6a45011f42~172~ubuntu22.04.1
; #@! TF.FileFunction,Plated,1,2,PTH
FMAT,2
INCH
; #@! TA.AperFunction,Plated,PTH,ViaDrill
T1C0.0157
; #@! TA.AperFunction,Plated,PTH,ComponentDrill
T2C0.0197
; #@! TA.AperFunction,Plated,PTH,ComponentDrill
T3C0.0315
; #@! TA.AperFunction,Plated,PTH,ComponentDrill
T4C0.0394
; #@! TA.AperFunction,Plated,PTH,ComponentDrill
T5C0.0512
; #@! TA.AperFunction,Plated,PTH,ComponentDrill
T6C0.0591
; #@! TA.AperFunction,Plated,PTH,ViaDrill
T7C0.1614
%
G90
G05
T1
X2.2Y-2.5
X2.2Y-2.6
X2.2Y-2.7
X2.3Y-3.9
X2.5Y-3.5
X2.7Y-2.6
X2.8Y-2.6
X3.3Y-2.5
X3.7Y-2.6
X3.7Y-3.0
T2
X2.0Y-2.3
X2.0591Y-2.3
T3
X1.8Y-1.8
X1.8Y-2.1
X1.9Y-1.8
X1.9Y-2.1
X2.0Y-1.8
X2.0Y-2.1
X2.1Y-1.8
X2.1Y-2.1
X2.5Y-1.1
X2.5Y-1.2
X2.5Y-1.7
X2.5Y-1.8
X2.5Y-2.2002
X2.5Y-2.8002
X2.5Y-3.0
X2.5Y-3.7
X2.6Y-2.2002
X2.6Y-2.8002
X2.6Y-3.0
X2.6Y-3.7
X2.7Y-2.2002
X2.7Y-2.8002
X2.7Y-3.0
X2.7Y-3.7
X2.8Y-2.2002
X2.8Y-2.8002
X2.8Y-3.0
X2.8Y-3.7
X2.9Y-2.2002
X2.9Y-2.8002
X2.9Y-3.0
X2.9Y-3.7
X3.0Y-2.2002
X3.0Y-2.8002
X3.0Y-3.0
X3.0Y-3.7
X3.1Y-2.2002
X3.1Y-2.8002
X3.1Y-3.0
X3.1Y-3.7
X3.2Y-2.2002
X3.2Y-2.8002
X3.2Y-3.0
X3.2Y-3.7
X3.3Y-2.2002
X3.3Y-2.8002
X3.3Y-3.0
X3.3Y-3.7
X3.4Y-2.2002
X3.4Y-2.8002
X3.4Y-3.0
X3.4Y-3.7
X3.5Y-2.2002
X3.5Y-2.8002
X3.5Y-3.0
X3.5Y-3.7
X3.6Y-1.0
X3.6Y-1.1
X3.6Y-1.2
X3.6Y-1.3
X3.6Y-1.6
X3.6Y-1.7
X3.6Y-1.8
X3.6Y-1.9
X3.6Y-2.2002
X3.6Y-2.8002
X3.6Y-3.0
X3.6Y-3.7
X3.7Y-2.0
X3.9Y-2.0
T4
X1.5Y-2.2
X1.5Y-2.3
X1.5Y-2.4
X1.5Y-2.5
X1.5Y-3.6
X1.5Y-3.7
X1.5Y-3.8
X1.5Y-3.9
X2.0Y-4.0
X2.0Y-4.1
X2.0Y-4.2
X2.0Y-4.3
X2.3Y-3.3
X2.3Y-3.4
X2.3Y-3.5
X2.3Y-3.6
X2.7Y-3.9
X2.8Y-3.9
T5
X1.488Y-1.1
X1.488Y-1.3
X1.488Y-1.5
X1.488Y-1.7
X1.5Y-4.1
X1.5Y-4.3
X2.3Y-4.212
X2.5Y-4.212
X2.7Y-4.212
X2.9Y-4.212
X3.1Y-4.212
X3.3Y-4.212
X3.5Y-4.212
X3.7Y-4.212
T6
X1.8Y-2.4176
X1.8Y-3.2243
T7
X1.8Y-3.6
X2.1Y-1.4
X3.9Y-1.7
T0
M30
