%TF.GenerationSoftware,KiCad,Pcbnew,7.0.2-6a45011f42~172~ubuntu22.04.1*%
%TF.CreationDate,2023-05-07T23:21:14+04:00*%
%TF.ProjectId,PCB 1,50434220-312e-46b6-9963-61645f706362,rev?*%
%TF.SameCoordinates,Original*%
%TF.FileFunction,Soldermask,Top*%
%TF.FilePolarity,Negative*%
%FSLAX46Y46*%
G04 Gerber Fmt 4.6, Leading zero omitted, Abs format (unit mm)*
G04 Created by KiCad (PCBNEW 7.0.2-6a45011f42~172~ubuntu22.04.1) date 2023-05-07 23:21:14*
%MOMM*%
%LPD*%
G01*
G04 APERTURE LIST*
%ADD10O,1.600000X1.600000*%
%ADD11R,2.600000X2.600000*%
%ADD12C,2.600000*%
%ADD13R,1.700000X1.700000*%
%ADD14O,1.700000X1.700000*%
%ADD15R,1.600000X1.600000*%
%ADD16C,1.000000*%
%ADD17R,3.000000X3.000000*%
%ADD18C,3.000000*%
G04 APERTURE END LIST*
D10*
%TO.C,*%
X86360000Y-76200000D03*
%TD*%
%TO.C,*%
X66040000Y-76200000D03*
%TD*%
%TO.C,*%
X63500000Y-30480000D03*
%TD*%
%TO.C,*%
X73660000Y-76200000D03*
%TD*%
D11*
%TO.C,Power*%
X38100000Y-104140000D03*
D12*
X38100000Y-109220000D03*
%TD*%
D10*
%TO.C,*%
X73660000Y-93980000D03*
%TD*%
D13*
%TO.C,Rele*%
X38100000Y-55880000D03*
D14*
X38100000Y-58420000D03*
X38100000Y-60960000D03*
X38100000Y-63500000D03*
%TD*%
D10*
%TO.C,*%
X83820000Y-76200000D03*
%TD*%
%TO.C,*%
X66040000Y-93980000D03*
%TD*%
D15*
%TO.C,*%
X91440000Y-33020000D03*
%TD*%
D10*
%TO.C,*%
X63500000Y-76200000D03*
%TD*%
%TO.C,*%
X76200000Y-93980000D03*
%TD*%
%TO.C,*%
X71120000Y-76200000D03*
%TD*%
%TO.C,*%
X76200000Y-76200000D03*
%TD*%
D15*
%TO.C,*%
X93980000Y-50800000D03*
%TD*%
D10*
%TO.C,*%
X63500000Y-45720000D03*
%TD*%
%TO.C,*%
X91440000Y-43180000D03*
%TD*%
%TO.C,*%
X68580000Y-93980000D03*
%TD*%
D11*
%TO.C,Sensors*%
X37795000Y-27940000D03*
D12*
X37795000Y-33020000D03*
X37795000Y-38100000D03*
X37795000Y-43180000D03*
%TD*%
D10*
%TO.C,*%
X91440000Y-45720000D03*
%TD*%
%TO.C,*%
X91440000Y-27940000D03*
%TD*%
%TO.C,*%
X71120000Y-93980000D03*
%TD*%
D15*
%TO.C,*%
X63500000Y-93980000D03*
%TD*%
D10*
%TO.C,*%
X88900000Y-76200000D03*
%TD*%
%TO.C,*%
X91440000Y-76200000D03*
%TD*%
D13*
%TO.C,BMP 180 Outside*%
X58420000Y-91440000D03*
D14*
X58420000Y-88900000D03*
X58420000Y-86360000D03*
X58420000Y-83820000D03*
%TD*%
D13*
%TO.C,BMP 180 Inside*%
X50800000Y-101600000D03*
D14*
X50800000Y-104140000D03*
X50800000Y-106680000D03*
X50800000Y-109220000D03*
%TD*%
D10*
%TO.C,*%
X81280000Y-76200000D03*
%TD*%
D15*
%TO.C,Arduino pro mini*%
X63500000Y-71125000D03*
D10*
X66040000Y-71125000D03*
X68580000Y-71125000D03*
X71120000Y-71125000D03*
X73660000Y-71125000D03*
X76200000Y-71125000D03*
X78740000Y-71125000D03*
X81280000Y-71125000D03*
X83820000Y-71125000D03*
X86360000Y-71125000D03*
X88900000Y-71125000D03*
X91440000Y-71125000D03*
X91440000Y-55885000D03*
X88900000Y-55885000D03*
X86360000Y-55885000D03*
X83820000Y-55885000D03*
X81280000Y-55885000D03*
X78740000Y-55885000D03*
X76200000Y-55885000D03*
X73660000Y-55885000D03*
X71120000Y-55885000D03*
X68580000Y-55885000D03*
X66040000Y-55885000D03*
X63500000Y-55885000D03*
%TD*%
D11*
%TO.C,Buttons*%
X58420000Y-106985000D03*
D12*
X63500000Y-106985000D03*
X68580000Y-106985000D03*
X73660000Y-106985000D03*
X78740000Y-106985000D03*
X83820000Y-106985000D03*
X88900000Y-106985000D03*
X93980000Y-106985000D03*
%TD*%
D10*
%TO.C,*%
X78740000Y-76200000D03*
%TD*%
%TO.C,*%
X78740000Y-93980000D03*
%TD*%
D16*
%TO.C,32.768KHz*%
X50800000Y-58420000D03*
X52300000Y-58420000D03*
%TD*%
D10*
%TO.C,*%
X81280000Y-93980000D03*
%TD*%
D13*
%TO.C,I2C *%
X71120000Y-99060000D03*
D14*
X68580000Y-99060000D03*
%TD*%
D10*
%TO.C,*%
X63500000Y-27940000D03*
%TD*%
%TO.C,*%
X68580000Y-76200000D03*
%TD*%
%TO.C,*%
X88900000Y-93980000D03*
%TD*%
D17*
%TO.C,3.3V*%
X45720000Y-61407584D03*
D18*
X45720000Y-81897584D03*
%TD*%
D13*
%TO.C,OLED*%
X38100000Y-99060000D03*
D14*
X38100000Y-96520000D03*
X38100000Y-93980000D03*
X38100000Y-91440000D03*
%TD*%
D10*
%TO.C,*%
X91440000Y-25400000D03*
%TD*%
%TO.C,*%
X86360000Y-93980000D03*
%TD*%
D15*
%TO.C,DS1302*%
X45720000Y-53340000D03*
D10*
X48260000Y-53340000D03*
X50800000Y-53340000D03*
X53340000Y-53340000D03*
X53340000Y-45720000D03*
X50800000Y-45720000D03*
X48260000Y-45720000D03*
X45720000Y-45720000D03*
%TD*%
%TO.C,*%
X83820000Y-93980000D03*
%TD*%
%TO.C,*%
X91440000Y-93980000D03*
%TD*%
%TO.C,*%
X91440000Y-30480000D03*
%TD*%
D15*
%TO.C,*%
X99060000Y-50800000D03*
%TD*%
D10*
%TO.C,*%
X63500000Y-43180000D03*
%TD*%
D15*
%TO.C,*%
X91440000Y-48260000D03*
%TD*%
D10*
%TO.C,*%
X91440000Y-40640000D03*
%TD*%
M02*
