%TF.GenerationSoftware,KiCad,Pcbnew,7.0.6-7.0.6~ubuntu22.04.1*%
%TF.CreationDate,2023-08-09T23:03:42+04:00*%
%TF.ProjectId,ESP 8266 ,45535020-3832-4363-9620-2e6b69636164,rev?*%
%TF.SameCoordinates,Original*%
%TF.FileFunction,Soldermask,Top*%
%TF.FilePolarity,Negative*%
%FSLAX46Y46*%
G04 Gerber Fmt 4.6, Leading zero omitted, Abs format (unit mm)*
G04 Created by KiCad (PCBNEW 7.0.6-7.0.6~ubuntu22.04.1) date 2023-08-09 23:03:42*
%MOMM*%
%LPD*%
G01*
G04 APERTURE LIST*
%ADD10C,1.600000*%
%ADD11O,1.600000X1.600000*%
%ADD12R,1.700000X1.700000*%
%ADD13O,1.700000X1.700000*%
%ADD14R,2.600000X2.600000*%
%ADD15C,2.600000*%
G04 APERTURE END LIST*
D10*
%TO.C,10k Ohm*%
X241300000Y-63500000D03*
D11*
X251460000Y-63500000D03*
%TD*%
D12*
%TO.C,REF\u002A\u002A*%
X170180000Y-44450000D03*
D13*
X170180000Y-46990000D03*
%TD*%
D10*
%TO.C,10k Ohm*%
X171450000Y-91440000D03*
D11*
X171450000Y-81280000D03*
%TD*%
D14*
%TO.C,SWitchs*%
X248920000Y-46990000D03*
D15*
X243840000Y-46990000D03*
X238760000Y-46990000D03*
X233680000Y-46990000D03*
X228600000Y-46990000D03*
X223520000Y-46990000D03*
X218440000Y-46990000D03*
X213360000Y-46990000D03*
%TD*%
D12*
%TO.C,REF\u002A\u002A*%
X203200000Y-57150000D03*
D13*
X203200000Y-59690000D03*
X203200000Y-62230000D03*
X203200000Y-64770000D03*
%TD*%
D12*
%TO.C,BMP 180 Outside*%
X177800000Y-86360000D03*
D13*
X177800000Y-88900000D03*
X177800000Y-91440000D03*
X177800000Y-93980000D03*
%TD*%
D12*
%TO.C,REF\u002A\u002A*%
X203200000Y-41910000D03*
D13*
X203200000Y-44450000D03*
X203200000Y-46990000D03*
X203200000Y-49530000D03*
%TD*%
D14*
%TO.C,Sensors pins*%
X154635000Y-43180000D03*
D15*
X154635000Y-48260000D03*
X154635000Y-53340000D03*
X154635000Y-58420000D03*
%TD*%
D12*
%TO.C,BMP 180 Inside*%
X165100000Y-86360000D03*
D13*
X165100000Y-88900000D03*
X165100000Y-91440000D03*
X165100000Y-93980000D03*
%TD*%
D10*
%TO.C,10k Ohm*%
X226060000Y-86360000D03*
D11*
X226060000Y-76200000D03*
%TD*%
D10*
%TO.C,10k Ohm*%
X182880000Y-88900000D03*
D11*
X182880000Y-78740000D03*
%TD*%
D12*
%TO.C,OLed 126X64*%
X190325000Y-86360000D03*
D13*
X190325000Y-88900000D03*
X190325000Y-91440000D03*
X190325000Y-93980000D03*
%TD*%
D10*
%TO.C,10k Ohm*%
X224790000Y-67310000D03*
D11*
X234950000Y-67310000D03*
%TD*%
D12*
%TO.C,REF\u002A\u002A*%
X241300000Y-91440000D03*
D13*
X238760000Y-91440000D03*
X236220000Y-91440000D03*
X233680000Y-91440000D03*
X231140000Y-91440000D03*
X228600000Y-91440000D03*
X226060000Y-91440000D03*
X223520000Y-91440000D03*
X220980000Y-91440000D03*
X218440000Y-91440000D03*
X215900000Y-91440000D03*
X213360000Y-91440000D03*
X210820000Y-91440000D03*
X208280000Y-91440000D03*
X205740000Y-91440000D03*
%TD*%
D10*
%TO.C,10k Ohm*%
X219710000Y-60960000D03*
D11*
X229870000Y-60960000D03*
%TD*%
D12*
%TO.C,Relay*%
X154940000Y-68580000D03*
D13*
X154940000Y-71120000D03*
X154940000Y-73660000D03*
X154940000Y-76200000D03*
%TD*%
D12*
%TO.C,REF\u002A\u002A*%
X241330000Y-111735000D03*
D13*
X238790000Y-111735000D03*
X236250000Y-111735000D03*
X233710000Y-111735000D03*
X231170000Y-111735000D03*
X228630000Y-111735000D03*
X226090000Y-111735000D03*
X223550000Y-111735000D03*
X221010000Y-111735000D03*
X218470000Y-111735000D03*
X215930000Y-111735000D03*
X213390000Y-111735000D03*
X210850000Y-111735000D03*
X208310000Y-111735000D03*
X205770000Y-111735000D03*
%TD*%
D14*
%TO.C,Power*%
X154940000Y-105410000D03*
D15*
X154940000Y-110490000D03*
%TD*%
D12*
%TO.C,REF\u002A\u002A*%
X170180000Y-59690000D03*
D13*
X170180000Y-62230000D03*
%TD*%
D10*
%TO.C,10k Ohm*%
X241300000Y-81280000D03*
D11*
X251460000Y-81280000D03*
%TD*%
M02*
