M48
; DRILL file {KiCad 7.0.6-7.0.6~ubuntu22.04.1} date Wed 09 Aug 2023 11:03:47 PM +04
; FORMAT={-:-/ absolute / metric / decimal}
; #@! TF.CreationDate,2023-08-09T23:03:47+04:00
; #@! TF.GenerationSoftware,Kicad,Pcbnew,7.0.6-7.0.6~ubuntu22.04.1
; #@! TF.FileFunction,Plated,1,2,PTH
FMAT,2
METRIC
; #@! TA.AperFunction,Plated,PTH,ComponentDrill
T1C0.800
; #@! TA.AperFunction,Plated,PTH,ComponentDrill
T2C1.000
; #@! TA.AperFunction,Plated,PTH,ComponentDrill
T3C1.300
; #@! TA.AperFunction,Plated,PTH,ViaDrill
T4C3.200
; #@! TA.AperFunction,Plated,PTH,ViaDrill
T5C4.200
%
G90
G05
T1
X171.45Y-81.28
X171.45Y-91.44
X182.88Y-78.74
X182.88Y-88.9
X219.71Y-60.96
X224.79Y-67.31
X226.06Y-76.2
X226.06Y-86.36
X229.87Y-60.96
X234.95Y-67.31
X241.3Y-63.5
X241.3Y-81.28
X251.46Y-63.5
X251.46Y-81.28
T2
X154.94Y-68.58
X154.94Y-71.12
X154.94Y-73.66
X154.94Y-76.2
X165.1Y-86.36
X165.1Y-88.9
X165.1Y-91.44
X165.1Y-93.98
X170.18Y-44.45
X170.18Y-46.99
X170.18Y-59.69
X170.18Y-62.23
X177.8Y-86.36
X177.8Y-88.9
X177.8Y-91.44
X177.8Y-93.98
X190.325Y-86.36
X190.325Y-88.9
X190.325Y-91.44
X190.325Y-93.98
X203.2Y-41.91
X203.2Y-44.45
X203.2Y-46.99
X203.2Y-49.53
X203.2Y-57.15
X203.2Y-59.69
X203.2Y-62.23
X203.2Y-64.77
X205.74Y-91.44
X205.77Y-111.735
X208.28Y-91.44
X208.31Y-111.735
X210.82Y-91.44
X210.85Y-111.735
X213.36Y-91.44
X213.39Y-111.735
X215.9Y-91.44
X215.93Y-111.735
X218.44Y-91.44
X218.47Y-111.735
X220.98Y-91.44
X221.01Y-111.735
X223.52Y-91.44
X223.55Y-111.735
X226.06Y-91.44
X226.09Y-111.735
X228.6Y-91.44
X228.63Y-111.735
X231.14Y-91.44
X231.17Y-111.735
X233.68Y-91.44
X233.71Y-111.735
X236.22Y-91.44
X236.25Y-111.735
X238.76Y-91.44
X238.79Y-111.735
X241.3Y-91.44
X241.33Y-111.735
T3
X154.635Y-43.18
X154.635Y-48.26
X154.635Y-53.34
X154.635Y-58.42
X154.94Y-105.41
X154.94Y-110.49
X213.36Y-46.99
X218.44Y-46.99
X223.52Y-46.99
X228.6Y-46.99
X233.68Y-46.99
X238.76Y-46.99
X243.84Y-46.99
X248.92Y-46.99
T4
X190.5Y-45.72
X190.5Y-60.96
T5
X168.91Y-104.14
X196.85Y-80.01
X214.63Y-64.77
T0
M30
